<svg width="24" height="24" viewBox="0 0 24 24" version="1.1" xmlns="http://www.w3.org/2000/svg" xmlns:xlink="http://www.w3.org/1999/xlink">
	<path id="path0_fill" d="M 24 12C 24 18.6274 18.6274 24 12 24C 5.37258 24 0 18.6274 0 12C 0 5.37258 5.37258 0 12 0C 18.6274 0 24 5.37258 24 12Z"/>
	<path id="path1_fill" d="M 6 4.5L 9.75 4.5C 10.164 4.5 10.5 4.836 10.5 5.25C 10.5 5.664 10.164 6 9.75 6L 6 6L 6 9.75C 6 10.164 5.664 10.5 5.25 10.5C 4.836 10.5 4.5 10.164 4.5 9.75L 4.5 6L 0.75 6C 0.336 6 0 5.664 0 5.25C 0 4.836 0.336 4.5 0.75 4.5L 4.5 4.5L 4.5 0.75C 4.5 0.336 4.836 0 5.25 0C 5.664 0 6 0.336 6 0.75L 6 4.5Z" transform="translate(6.75 6.75)" fill="#ffffff" />
</svg>
