<svg width="24" height="24" viewBox="0 0 24 24" version="1.1" xmlns="http://www.w3.org/2000/svg" xmlns:xlink="http://www.w3.org/1999/xlink">
<title>Backcall_Icon_Active</title>
<desc>Created using Figma</desc>
<g id="Canvas" transform="translate(848 62)">
<g id="Backcall_Icon_Active">
<g id="Vector">
<use xlink:href="#path0_fill" transform="translate(-848 -62)" fill="#101010"/>
</g>
<g id="Vector">
<use xlink:href="#path1_fill" transform="translate(-834.51 -62)" fill="#101010"/>
</g>
</g>
</g>
<defs>
<path id="path0_fill" d="M 0.713715 7.10581C 0.713715 7.10581 3.76859 12.2979 7.71757 16.2351C 11.9175 20.4233 16.8234 23.1684 16.8234 23.1684C 18.443 23.9998 20.039 24.3919 21.2665 23.1684L 23.49 20.9527C 24.1017 20.341 24.2351 19.2508 23.49 18.7371L 19.0469 15.4155C 18.2939 14.9057 17.439 14.8038 16.8234 15.4155L 15.5096 16.7253C 13.9685 15.5802 12.2548 14.1803 10.7136 12.6469C 9.35284 11.2901 8.14109 9.81559 7.13326 8.46266L 8.49403 7.10581C 9.10579 6.49405 9.00383 5.63916 8.49403 4.89015L 5.16073 0.458819C 4.54505 -0.15294 3.5529 -0.15294 2.93722 0.458819L 0.713715 2.67448C -0.509802 3.898 0.0784275 5.35681 0.713715 7.10581Z"/>
<path id="path1_fill" d="M 7.41561 9.01952L 2.50194 9.01952L 10.5097 1.04313L 9.45873 -4.67483e-10L 1.45881 7.96855L 1.48234 3.10977C 1.48234 2.70193 1.14901 2.37253 0.741169 2.37253C 0.33333 2.37253 0 2.70193 0 3.10977L 0 9.75677C 0 9.97637 0.0901952 10.1528 0.235292 10.2744C 0.368624 10.4117 0.556857 10.4979 0.764698 10.4979L 7.41953 10.4979C 7.83129 10.4979 8.1607 10.1685 8.1607 9.76069C 8.15678 9.34893 7.82737 9.01952 7.41561 9.01952Z"/>
</defs>
</svg>
