<svg width="24" height="24" viewBox="0 0 24 24" version="1.1" xmlns="http://www.w3.org/2000/svg" xmlns:xlink="http://www.w3.org/1999/xlink">
<title>Booking_Icon_Active</title>
<desc>Created using Figma</desc>
<g id="Canvas" transform="translate(945 62)">
<g id="Booking_Icon_Active">
<g id="Union">
<use xlink:href="#path0_fill" transform="translate(-945 -62)"/>
</g>
</g>
</g>
<defs>
<path id="path0_fill" fill-rule="evenodd" d="M 12.7125 2.25C 16.6583 1.1955 21 0 21 0C 22.6567 0 24 1.34326 24 3L 24 18.75C 24 20.4067 22.5398 21.3518 21 21.75C 21 21.75 16.959 22.875 12.744 24L 11.2253 24C 7.04474 22.875 3 21.75 3 21.75C 1.41376 21.234 0 20.4067 0 18.75L 0 3C 0 1.34326 1.34326 0 3 0C 3 0 7.46625 1.242 11.2245 2.25C 11.3893 2.25 11.5547 2.25217 11.7201 2.25433C 12.0513 2.25867 12.3829 2.263 12.7125 2.25ZM 21 20.25C 21.8047 19.992 22.5 19.5787 22.5 18.75L 22.5 3C 22.5 2.17126 21.8287 1.5 21 1.5L 20 1.77274L 20 10L 17.5 9L 15 10.5L 15 3.13635L 12.75 3.75L 12.75 22.482C 16.9177 21.3863 21 20.25 21 20.25Z"/>
</defs>
</svg>
