<svg width="12" height="12" viewBox="0 0 12 12" version="1.1" xmlns="http://www.w3.org/2000/svg" xmlns:xlink="http://www.w3.org/1999/xlink">
<title>Timer_Icon</title>
<desc>Created using Figma</desc>
<g id="Canvas" transform="translate(-1819 -986)">
<g id="Timer_Icon">
<g id="Vector">
<use xlink:href="#path0_fill" transform="translate(1819 986)" fill="#000000" fill-opacity="0.75"/>
</g>
<g id="Vector">
<use xlink:href="#path1_fill" transform="translate(1824.62 987.5)" fill="#000000" fill-opacity="0.75"/>
</g>
</g>
</g>
<defs>
<path id="path0_fill" d="M 6 0C 2.68627 0 0 2.68627 0 6C 0 9.31373 2.68627 12 6 12C 9.31373 12 12 9.31373 12 6C 12 2.68627 9.31373 0 6 0ZM 6 11.251C 3.1 11.251 0.74902 8.9 0.74902 6C 0.74902 3.1 3.1 0.74902 6 0.74902C 8.9 0.74902 11.251 3.1 11.251 6C 11.251 8.9 8.9 11.251 6 11.251Z"/>
<path id="path1_fill" d="M 3.74902 4.13333L 0.74902 4.13333L 0.74902 0.37451C 0.74902 0.166667 0.580392 0 0.37451 0C 0.168627 0 -2.39354e-07 0.168627 -2.39354e-07 0.37451L -2.39354e-07 4.50784C -2.39354e-07 4.71569 0.168627 4.88235 0.37451 4.88235L 3.74902 4.88235C 3.95686 4.88235 4.12353 4.71373 4.12353 4.50784C 4.12353 4.30196 3.95686 4.13333 3.74902 4.13333Z"/>
</defs>
</svg>
