<svg width="16" height="16" viewBox="0 0 16 16" version="1.1" xmlns="http://www.w3.org/2000/svg" xmlns:xlink="http://www.w3.org/1999/xlink">
	<path id="path2_fill" d="M 16 8C 16 12.4183 12.4183 16 8 16C 3.58172 16 0 12.4183 0 8C 0 3.58172 3.58172 0 8 0C 12.4183 0 16 3.58172 16 8Z" fill="#101010"/>
	<path id="path3_fill" d="M 5.13624 0.147745C 5.33274 -0.0492484 5.65175 -0.0492484 5.84874 0.147745C 6.04573 0.344268 6.04573 0.663745 5.84876 0.860241L 3.70024 3.00874L 5.81875 5.12722C 6.01425 5.32223 6.01425 5.63873 5.81875 5.83423C 5.62374 6.02973 5.30725 6.02973 5.11175 5.83423L 2.99326 3.71575L 0.860242 5.84874C 0.663745 6.04526 0.344739 6.04526 0.147745 5.84874C -0.0492484 5.65222 -0.0492484 5.33323 0.147745 5.13624L 2.28074 3.00325L 0.162229 0.884739C -0.0332744 0.689758 -0.0332744 0.373261 0.162229 0.177758C 0.357209 -0.0177454 0.673706 -0.0177454 0.86921 0.177758L 2.98772 2.29624L 5.13624 0.147745Z" fill="#FFFFFF" transform="translate(5.01 4.99)"/>
</svg>
