<svg width="24" height="24" viewBox="0 0 24 24" version="1.1" xmlns="http://www.w3.org/2000/svg" xmlns:xlink="http://www.w3.org/1999/xlink">
<title>Close_Icon</title>
<desc>Created using Figma</desc>
<g id="Canvas" transform="translate(-151 -407)">
<g id="Close_Icon">
<use xlink:href="#path0_fill" transform="translate(151 407)" fill="#FFFFFF"/>
</g>
</g>
<defs>
<path id="path0_fill" d="M 16.2878 7.71224C 15.9923 7.41675 15.5138 7.41675 15.219 7.71224L 11.9962 10.935L 8.81847 7.75725C 8.52522 7.464 8.05047 7.464 7.758 7.75725C 7.46475 8.05051 7.46475 8.52526 7.758 8.81773L 10.9358 11.9955L 7.73627 15.195C 7.44078 15.4905 7.44078 15.9689 7.73627 16.2637C 8.03176 16.5585 8.51027 16.5585 8.80502 16.2637L 12.0045 13.0642L 15.1823 16.242C 15.4755 16.5352 15.9503 16.5352 16.2428 16.242C 16.536 15.9487 16.536 15.474 16.2428 15.1815L 13.065 12.0037L 16.2878 8.78098C 16.5833 8.48623 16.5833 8.00702 16.2878 7.71224ZM 12 0C 5.37224 0 0 5.37224 0 12C 0 18.6278 5.37224 24 12 24C 18.627 24 24 18.627 24 12C 24 5.37302 18.6278 0 12 0ZM 12 22.5C 6.20098 22.5 1.5 17.799 1.5 12C 1.5 6.20098 6.20098 1.5 12 1.5C 17.799 1.5 22.5 6.20098 22.5 12C 22.5 17.799 17.799 22.5 12 22.5Z"/>
</defs>
</svg>
