<svg width="64" height="56" viewBox="0 0 64 56" version="1.1" xmlns="http://www.w3.org/2000/svg" xmlns:xlink="http://www.w3.org/1999/xlink">
	<path id="path0_fill" d="M 62.5935 5.62602C 60.6553 2.15504 56.9793 -1.94808e-07 53.0008 -1.94808e-07C 51.1286 -1.94808e-07 49.2741 0.48691 47.6418 1.40763L 26.9977 13.0385L 29.3726 17.2867L 50.0178 5.6559C 50.9308 5.1425 51.9625 4.871 53.0042 4.871C 55.2272 4.871 57.2798 6.07327 58.3621 8.00977C 59.1617 9.44062 59.3575 11.0999 58.9131 12.683C 58.4709 14.2661 57.4413 15.5822 56.0157 16.3848L 37.3021 26.9248C 36.9457 24.6362 35.882 22.5254 34.2177 20.8539C 31.283 17.9116 26.6312 16.8706 22.7243 18.2782L 21.0348 18.8887L 22.676 23.4704L 24.3721 22.8632C 26.5544 22.0661 29.1515 22.66 30.7871 24.2984C 31.7308 25.2467 32.3281 26.4478 32.5173 27.7495C 32.4381 27.7308 32.3588 27.7108 32.2831 27.6888C 30.7024 27.2428 29.3934 26.2084 28.5927 24.772L 27.7106 23.2076L 23.4746 25.5967L 24.3623 27.161C 25.7967 29.73 28.1418 31.5848 30.9708 32.3819C 31.0687 32.4073 31.1677 32.4349 31.2668 32.4581C 31.1173 32.648 30.9577 32.829 30.7883 32.9991L 15.3184 48.5269C 14.1613 49.6872 12.6214 50.3253 10.9834 50.3253C 9.34443 50.3253 7.80449 49.6872 6.64952 48.5269C 5.49456 47.3666 4.85882 45.8232 4.85882 44.1771C 4.85882 42.532 5.49456 40.9876 6.64952 39.8284L 20.0856 26.3441L 16.6527 22.8985L 3.21779 36.3828C 1.14292 38.467 0 41.2348 0 44.1769C 0 47.1213 1.14292 49.888 3.21738 51.9724C 5.29307 54.0557 8.04955 55.2005 10.9832 55.2005C 13.9168 55.2005 16.6733 54.0557 18.749 51.9724L 34.2222 36.4456C 35.3551 35.304 36.2263 33.924 36.7719 32.4104C 37.6684 32.1708 38.5208 31.8264 39.3128 31.3782L 58.3917 20.6329C 60.9459 19.1921 62.7915 16.8373 63.5846 14.0011C 64.3787 11.1638 64.0267 8.18837 62.5935 5.62602Z" transform="translate(0 0.799)"/>
	<path id="path1_fill" d="M 3.64267 15.1372C 4.25202 15.0257 4.65906 14.4384 4.54796 13.8256L 2.23357 0.930672C 2.12247 0.316907 1.53505 -0.0916356 0.925698 0.0176985C 0.315266 0.129206 -0.092862 0.716486 0.0182362 1.33147L 2.33371 14.2241C 2.44373 14.8392 3.03007 15.2465 3.64267 15.1372Z" transform="translate(19.789 0)"/>
	<path id="path2_fill" d="M 1.32395 4.56796L 14.1705 2.24288C 14.782 2.13137 15.189 1.54409 15.0779 0.931279C 14.9668 0.316292 14.3817 -0.0932014 13.7722 0.0183057L 0.924617 2.34447C 0.315268 2.45272 -0.0928598 3.04326 0.0182384 3.65607C 0.127172 4.26997 0.714599 4.67838 1.32395 4.56796Z" transform="translate(4.569 17.3609)"/>
</svg>
