<svg width="24" height="24" viewBox="0 0 24 24" version="1.1" xmlns="http://www.w3.org/2000/svg" xmlns:xlink="http://www.w3.org/1999/xlink">
	<path id="path0_fill" d="M 24 12C 24 18.6274 18.6274 24 12 24C 5.37258 24 0 18.6274 0 12C 0 5.37258 5.37258 0 12 0C 18.6274 0 24 5.37258 24 12Z" fill="currentColor"/>
	<path id="path1_fill" d="M 0 4.91141L 1.6 4.91141L 1.6 3.41141C 1.51334 2.61083 1.68879 1.80375 2.1 1.11141C 2.3697 0.735029 2.73297 0.43557 3.1539 0.242645C 3.57483 0.0497207 4.03882 -0.0299858 4.5 0.0114083C 5.44329 -0.0361319 6.38819 0.0651071 7.3 0.311408L 6.9 2.61141C 6.47848 2.48281 6.04068 2.41546 5.6 2.41141C 5 2.41141 4.5 2.61141 4.5 3.21141L 4.5 4.91141L 7 4.91141L 6.8 7.21141L 4.5 7.21141L 4.5 15.0114L 1.6 15.0114L 1.6 7.21141L 0 7.21141L 0 4.91141Z" transform="translate(8 4)" fill="#ffffff"/>
</svg>
