<svg width="24" height="24" viewBox="0 0 24 24" version="1.1" xmlns="http://www.w3.org/2000/svg" xmlns:xlink="http://www.w3.org/1999/xlink">
	<path id="path0_fill" d="M 24 12C 24 18.6274 18.6274 24 12 24C 5.37258 24 0 18.6274 0 12C 0 5.37258 5.37258 0 12 0C 18.6274 0 24 5.37258 24 12Z"/>
	<path id="path1_fill" d="M 11.5 0.00157219L 1.70003 0.00157219C 1.47641 0.000245042 1.25475 0.0433108 1.0479 0.128274C 0.841048 0.213237 0.653114 0.338407 0.49499 0.496532C 0.336865 0.654657 0.211694 0.842591 0.126731 1.04944C 0.0417684 1.2563 -0.00129738 1.47795 2.9765e-05 1.70157L 2.9765e-05 11.5016C -0.00129738 11.7252 0.0417684 11.9468 0.126731 12.1537C 0.211694 12.3606 0.336865 12.5485 0.49499 12.7066C 0.653114 12.8647 0.841048 12.9899 1.0479 13.0749C 1.25475 13.1598 1.47641 13.2029 1.70003 13.2016L 11.5 13.2016C 11.7236 13.2029 11.9453 13.1598 12.1522 13.0749C 12.359 12.9899 12.5469 12.8647 12.7051 12.7066C 12.8632 12.5485 12.9884 12.3606 13.0733 12.1537C 13.1583 11.9468 13.2014 11.7252 13.2 11.5016L 13.2 1.70157C 13.21 1.47568 13.1728 1.25019 13.0909 1.03945C 13.0089 0.828699 12.8841 0.6373 12.7242 0.477416C 12.5643 0.317532 12.3729 0.192662 12.1622 0.110742C 11.9514 0.0288214 11.7259 -0.00835612 11.5 0.00157219ZM 9.00003 2.00157C 9.01158 1.84627 9.0785 1.70028 9.18862 1.59016C 9.29874 1.48005 9.44473 1.41312 9.60003 1.40157L 11.1 1.40157C 11.2553 1.41312 11.4013 1.48005 11.5114 1.59016C 11.6216 1.70028 11.6885 1.84627 11.7 2.00157L 11.7 3.40157C 11.6885 3.55687 11.6216 3.70286 11.5114 3.81298C 11.4013 3.9231 11.2553 3.99002 11.1 4.00157L 9.60003 4.00157C 9.44473 3.99002 9.29874 3.9231 9.18862 3.81298C 9.0785 3.70286 9.01158 3.55687 9.00003 3.40157L 9.00003 2.00157ZM 6.60003 3.90157C 6.94447 3.89045 7.28754 3.9501 7.60801 4.07683C 7.92849 4.20355 8.21957 4.39467 8.46325 4.63835C 8.70694 4.88204 8.89805 5.17311 9.02478 5.49359C 9.1515 5.81407 9.21115 6.15713 9.20003 6.50157C 9.18721 7.18713 8.90917 7.84102 8.42433 8.32587C 7.93948 8.81071 7.28558 9.08876 6.60003 9.10157C 6.25559 9.11269 5.91252 9.05305 5.59205 8.92632C 5.27157 8.79959 4.98049 8.60848 4.73681 8.36479C 4.49312 8.12111 4.30201 7.83003 4.17528 7.50955C 4.04856 7.18908 3.98891 6.84601 4.00003 6.50157C 4.01285 5.81602 4.29089 5.16212 4.77573 4.67728C 5.26058 4.19243 5.91448 3.91439 6.60003 3.90157ZM 11.7 11.1016C 11.7044 11.1684 11.6945 11.2354 11.671 11.298C 11.6474 11.3607 11.6107 11.4176 11.5634 11.4649C 11.5161 11.5123 11.4591 11.549 11.3965 11.5725C 11.3338 11.5961 11.2668 11.606 11.2 11.6016L 2.10003 11.6016C 2.03323 11.606 1.96625 11.5961 1.90358 11.5725C 1.84091 11.549 1.78401 11.5123 1.73666 11.4649C 1.68932 11.4176 1.65264 11.3607 1.62908 11.298C 1.60551 11.2354 1.59561 11.1684 1.60003 11.1016L 1.60003 5.60157L 2.80003 5.60157C 2.68521 5.95783 2.61797 6.3277 2.60003 6.70157C 2.59986 7.23538 2.70654 7.76382 2.91379 8.25576C 3.12103 8.7477 3.42464 9.19318 3.80673 9.56595C 4.18883 9.93872 4.64166 10.2312 5.13857 10.4263C 5.63547 10.6213 6.16639 10.7149 6.70003 10.7016C 7.23367 10.7149 7.76459 10.6213 8.26149 10.4263C 8.75839 10.2312 9.21124 9.93872 9.59333 9.56595C 9.97542 9.19318 10.279 8.7477 10.4863 8.25576C 10.6935 7.76382 10.8002 7.23538 10.8 6.70157C 10.7912 6.32671 10.7237 5.95554 10.6 5.60157L 11.8 5.60157L 11.7 11.1016Z" transform="translate(5 6)" fill="#FFFFFF"/>
</svg>
