<svg width="48" height="46" viewBox="0 0 48 46" version="1.1" xmlns="http://www.w3.org/2000/svg" xmlns:xlink="http://www.w3.org/1999/xlink">
<title>Musha_Logo</title>
<desc>Created using Figma</desc>
<g id="Canvas" transform="translate(497 511)">
<g id="Musha_Logo" filter="url(#filter0_d)">
<g id="Vector">
<use xlink:href="#path0_fill" transform="translate(-495 -511)" fill="#101010"/>
</g>
<g id="Vector">
<use xlink:href="#path1_fill" transform="translate(-490.822 -510.092)" fill="#101010"/>
</g>
<g id="Vector">
<use xlink:href="#path2_fill" transform="translate(-460.736 -508.41)" fill="#101010"/>
</g>
<g id="Vector">
<use xlink:href="#path3_fill" transform="translate(-482.788 -482.419)" fill="#101010"/>
</g>
</g>
</g>
<defs>
<filter id="filter0_d" filterUnits="userSpaceOnUse" x="-498" y="-512" width="50" height="48" color-interpolation-filters="sRGB">
<feFlood flood-opacity="0" result="BackgroundImageFix"/>
<feColorMatrix in="SourceAlpha" type="matrix" values="0 0 0 0 0 0 0 0 0 0 0 0 0 0 0 0 0 0 255 0"/>
<feOffset dx="0" dy="2"/>
<feGaussianBlur stdDeviation="1"/>
<feColorMatrix type="matrix" values="0 0 0 0 1 0 0 0 0 1 0 0 0 0 1 0 0 0 1 0"/>
<feBlend mode="normal" in2="BackgroundImageFix" result="effect1_dropShadow"/>
<feBlend mode="normal" in="SourceGraphic" in2="effect1_dropShadow" result="shape"/>
</filter>
<path id="path0_fill" d="M 35.4186 0.599723C 35.3243 0.322074 34.8215 -0.0789759 34.3501 0.013574C 26.5877 1.49437 21.528 9.66961 17.0654 18.6161C 16.9397 18.8629 16.7512 19.2948 16.5626 19.6342C 16.374 20.0044 16.1855 20.4054 15.9969 20.8065C 15.4941 21.3001 14.9913 21.7936 14.4884 22.3181C 10.1515 26.6062 7.35458 28.5806 2.64058 34.7815C 0.943537 37.0027 -0.030689 39.2239 0.000737645 40.3345C 0.0950176 42.1238 1.82348 42.2163 3.11198 41.7844C 3.17483 41.7536 3.23768 41.7227 3.30054 41.7227C 9.71158 39.8717 13.9227 31.7273 18.4168 20.9299C 19.9881 19.4799 21.528 17.7832 22.8794 16.3641C 21.4652 19.3874 19.2024 24.601 19.3281 27.8402C 19.391 29.2902 20.3966 30.555 21.1195 30.5242C 23.3822 30.3699 25.9592 25.8967 28.2219 21.1767C 27.3105 23.4287 26.5877 25.6807 26.9648 27.7785C 27.3734 29.9997 29.1647 30.9869 30.7674 30.6784C 31.3645 30.5859 31.5217 30.3699 31.4903 30.2774C 31.4588 30.1848 31.396 30.1231 31.2388 30.154C 30.4532 30.2774 29.3218 30.0614 29.0704 28.704C 28.2847 24.4776 34.2558 13.094 33.9101 11.3047C 33.753 10.5026 32.3388 9.45366 32.1188 9.51536C 31.9931 9.54621 31.9617 9.60791 31.9931 9.76216C 32.1502 10.5951 30.516 14.8833 30.5475 14.8216C 30.5475 14.8524 30.1389 15.963 29.6675 16.8268C 27.1534 22.7191 23.5393 29.3827 21.5594 29.4444C 21.1823 29.4444 20.868 29.0125 20.8366 28.303C 20.7423 24.4159 23.225 19.3257 25.0164 14.328C 25.0478 14.2971 27.7191 11.4589 28.6619 10.1015C 29.6989 8.65156 30.2646 7.13992 29.6047 6.33782C 29.4161 6.12187 29.1647 6.02932 28.9133 6.06017C 28.2219 6.09102 27.1534 7.69522 26.5877 8.52816C 25.582 10.009 25.0478 11.243 23.885 13.8344C 23.8221 14.0195 23.6022 14.3588 23.5079 14.5439C 21.4023 16.6726 20.868 17.4438 19.1396 19.1406C 19.2024 18.9863 19.2339 18.9863 19.2653 18.8321C 19.2653 18.8321 20.8052 15.1609 21.0566 14.7907C 24.4507 7.69522 28.8504 1.58692 34.0672 0.599723C 34.3815 0.538023 35.1986 0.692273 35.2615 0.692273C 35.3243 0.723123 35.4814 0.723123 35.4186 0.599723ZM 2.0749 41.5376C 1.98062 41.5685 1.85491 41.5685 1.7292 41.5685C 1.44636 41.5376 0.692124 41.2291 0.943538 40.1802C 1.50922 37.9282 3.92907 34.874 4.80902 33.7017C 6.9146 30.8635 8.61164 29.0742 10.6229 27.069C 12.0686 25.619 13.5456 24.2308 15.0227 22.8117C 10.8429 31.6965 6.66319 40.5813 2.0749 41.5376ZM 27.2477 8.62071C 27.6562 7.84947 28.0019 7.41757 28.0648 7.29417C 28.4419 6.73887 28.8504 6.30697 29.1961 6.36867C 30.4532 6.67717 28.379 9.94726 27.122 11.2121C 26.5877 11.7674 25.1735 13.2482 25.0478 13.3408C 25.6135 11.7983 26.5563 9.85471 27.2477 8.62071Z"/>
<path id="path1_fill" d="M 23.3521 0.2468C 23.4778 0.1851 23.415 -5.88416e-08 23.2578 -5.88416e-08C 22.0008 0.0616999 20.7437 0.21595 19.4238 0.524449C 8.55015 3.05415 -0.155039 13.4506 0.00209429 23.7853C 0.033521 25.2044 0.222081 26.5618 0.536348 27.8267C 0.442068 27.0863 0.379214 26.2842 0.347787 25.4821C 0.222081 15.0548 8.51872 4.5041 18.8895 1.9744C 19.7695 1.75845 21.3408 1.5425 21.4665 1.51165C 21.7179 1.4808 22.535 0.555299 23.3521 0.2468Z"/>
<path id="path2_fill" d="M 9.73441 12.6331C 9.67156 6.86412 6.68602 2.36002 2.09773 0.046275C 1.97202 -0.0154249 1.78346 -0.0154249 1.65776 0.046275C 1.18636 0.262225 0.557824 0.509024 0.11785 0.694124C -0.0392829 0.755824 -0.0392829 0.971774 0.11785 1.03347C 4.95756 3.22382 8.1945 7.97472 8.25736 14.2064C 8.32021 17.785 7.31456 21.3328 5.58609 24.6028C 5.52324 24.6954 5.68037 24.7879 5.74322 24.6954C 8.32021 21.0551 9.79726 16.8287 9.73441 12.6331Z"/>
<path id="path3_fill" d="M 12.3332 8.88479C 7.99634 9.81029 4.13086 9.68689 0.736781 8.11354C 0.611074 7.99014 0.296807 8.82309 0.0453941 9.19329C -0.0488859 9.31669 0.0139672 9.47094 0.139674 9.53264C 3.37662 11.106 7.52494 11.6304 11.799 10.6432C 18.0214 9.22414 23.4897 5.15195 26.8209 4.70733e-07C 23.3011 4.319 18.1157 7.65079 12.3332 8.88479Z"/>
</defs>
</svg>
