<svg width="16" height="16" viewBox="0 0 16 16" version="1.1" xmlns="http://www.w3.org/2000/svg" xmlns:xlink="http://www.w3.org/1999/xlink">
<title>Phone_Icon</title>
<desc>Created using Figma</desc>
<g id="Canvas" transform="translate(124 -751)">
<g id="Phone_Icon">
<use xlink:href="#path0_fill" transform="translate(-124 751)" fill="#FFFFFF"/>
</g>
</g>
<defs>
<path id="path0_fill" d="M 0.47581 4.73748C 0.47581 4.73748 2.51239 8.19908 5.14504 10.824C 7.94502 13.6163 11.2156 15.4465 11.2156 15.4465C 12.2953 16.0008 13.3593 16.2622 14.1776 15.4465L 15.66 13.9693C 16.0678 13.5614 16.1567 12.8346 15.66 12.4921L 12.6979 10.2776C 12.196 9.93773 11.626 9.86975 11.2156 10.2776L 10.3398 11.1509C 9.31232 10.3874 8.16985 9.45405 7.14241 8.43178C 6.23523 7.52716 5.42739 6.5441 4.75551 5.6421L 5.66269 4.73748C 6.07053 4.32962 6.00255 3.75966 5.66269 3.26029L 3.44049 0.305897C 3.03003 -0.101966 2.3686 -0.101966 1.95815 0.305897L 0.47581 1.78309C -0.339868 2.59882 0.052285 3.57141 0.47581 4.73748ZM 1.28626 2.45502L 2.22743 1.51641C 2.48886 1.25758 2.90977 1.16868 3.17121 1.51641L 4.58557 3.39624C 4.80256 3.71521 4.84701 4.07601 4.58557 4.33485L 3.39604 5.52183C 5.82216 9.45666 10.1855 12.3169 10.4574 12.5104L 11.6182 11.3522C 11.877 11.0933 12.2404 11.1378 12.5593 11.3522L 14.4443 12.7614C 14.7266 12.9993 14.6378 13.3758 14.4443 13.7L 13.5031 14.6386C 13.2417 14.8974 12.2953 14.8844 11.9554 14.7066C 11.9554 14.7066 7.53456 11.9352 5.66007 9.90635C 4.03394 8.21739 2.09148 5.6604 1.21567 3.99758C 1.02221 3.61063 0.915021 2.80013 1.28626 2.45502Z"/>
</defs>
</svg>
