<svg width="24" height="21" viewBox="0 0 24 21" version="1.1" xmlns="http://www.w3.org/2000/svg" xmlns:xlink="http://www.w3.org/1999/xlink">
<title>Photo_Icon</title>
<desc>Created using Figma</desc>
<g id="Canvas" transform="translate(-1392 -41)">
<g id="Photo_Icon">
<use xlink:href="#path0_fill" transform="translate(1392 41)"/>
</g>
</g>
<defs>
<path id="path0_fill" d="M 21 3L 18.75 3L 18 1.5C 17.5582 0.62698 17.3287 0 16.5 0L 7.5 0C 6.67126 0 6.39749 0.71549 6 1.5L 5.25 3L 3 3C 1.34325 3 0 4.34326 0 6L 0 18C 0 19.6567 1.34325 21 3 21L 21 21C 22.6567 21 24 19.6567 24 18L 24 6C 24 4.34326 22.6567 3 21 3ZM 22.5 18C 22.5 18.8287 21.8287 19.5 21 19.5L 3 19.5C 2.17125 19.5 1.5 18.8287 1.5 18L 1.5 6C 1.5 5.172 2.17125 4.5 3 4.5L 6 4.5L 6.75 3C 7.28024 2.12776 7.42126 1.5 8.25 1.5L 15.75 1.5C 16.5787 1.5 16.7198 2.12698 17.25 3L 18 4.5L 21 4.5C 21.8287 4.5 22.5 5.17126 22.5 6L 22.5 18ZM 12 6C 8.68651 6 6 8.68651 6 12C 6 15.3135 8.68651 18 12 18C 15.3135 18 18 15.3135 18 12C 18 8.68651 15.3135 6 12 6ZM 12 16.5C 9.51451 16.5 7.5 14.4855 7.5 12C 7.5 9.51451 9.51451 7.5 12 7.5C 14.4855 7.5 16.5 9.51451 16.5 12C 16.5 14.4855 14.4855 16.5 12 16.5Z"/>
</defs>
</svg>
