<svg width="18" height="18" viewBox="0 0 18 18" version="1.1" xmlns="http://www.w3.org/2000/svg" xmlns:xlink="http://www.w3.org/1999/xlink">
<title>Icon</title>
<desc>Created using Figma</desc>
<g id="Canvas" transform="translate(-985 296)">
<rect x="985" y="-296" width="18" height="18" fill="#E5E5E5"/>
<clipPath id="clip-0" clip-rule="evenodd">
<path d="M 642 -334L 1017 -334L 1017 781L 642 781L 642 -334Z" fill="#FFFFFF"/>
</clipPath>
<g id="Reviews" clip-path="url(#clip-0)">
<path d="M 642 -334L 1017 -334L 1017 781L 642 781L 642 -334Z" fill="#FFFFFF"/>
<g id="bg3">
<use xlink:href="#path0_fill" transform="translate(-154 -334)" fill="#FDD9CC" fill-opacity="0.35"/>
</g>
<g id="Top block 3">
<g id="bg" filter="url(#filter0_d)">
<use xlink:href="#path1_fill" transform="translate(642 -310)" fill="#FFFFFF"/>
</g>
<g id="Icons/Top Bar/Add">
<g id="Icon">
<use xlink:href="#path2_fill" transform="translate(985 -296)"/>
</g>
</g>
</g>
</g>
</g>
<defs>
<filter id="filter0_d" filterUnits="userSpaceOnUse" x="642" y="-310" width="375" height="45" color-interpolation-filters="sRGB">
<feFlood flood-opacity="0" result="BackgroundImageFix"/>
<feColorMatrix in="SourceAlpha" type="matrix" values="0 0 0 0 0 0 0 0 0 0 0 0 0 0 0 0 0 0 255 0"/>
<feOffset dx="0" dy="0.5"/>
<feColorMatrix type="matrix" values="0 0 0 0 0 0 0 0 0 0 0 0 0 0 0 0 0 0 0.15 0"/>
<feBlend mode="normal" in2="BackgroundImageFix" result="effect1_dropShadow"/>
<feBlend mode="normal" in="SourceGraphic" in2="effect1_dropShadow" result="shape"/>
</filter>
<path id="path0_fill" d="M 0 0L 1965 0L 1965 1213L 0 1213L 0 0Z"/>
<path id="path1_fill" d="M 0 0L 375 0L 375 44L 0 44L 0 0Z"/>
<path id="path2_fill" fill-rule="evenodd" d="M 9.5 0L 8 0L 8 8L 0 8L 0 9.5L 8 9.5L 8 17.5L 9.5 17.5L 9.5 9.5L 17.5 9.5L 17.5 8L 9.5 8L 9.5 0Z"/>
</defs>
</svg>
