<svg width="24" height="24" viewBox="0 0 24 24" version="1.1" xmlns="http://www.w3.org/2000/svg" xmlns:xlink="http://www.w3.org/1999/xlink">
	<path id="path3_fill" d="M 12 0C 5.37224 0 0 4.70098 0 10.5C 0 13.8143 1.75875 16.7647 4.5 18.6893L 4.5 24L 9.75675 20.8102C 10.4843 20.9303 11.2327 21 12 21C 18.6278 21 24 16.299 24 10.5C 24 4.70098 18.6278 0 12 0ZM 12 19.5C 11.124 19.5 10.278 19.398 9.46498 19.2247L 5.93396 21.3472L 5.98122 17.8687C 3.27451 16.2405 1.5 13.5495 1.5 10.5C 1.5 5.52976 6.20098 1.5 12 1.5C 17.799 1.5 22.5 5.52976 22.5 10.5C 22.5 15.4702 17.799 19.5 12 19.5Z"/>
	<path id="path4_fill" fill-rule="evenodd" d="M 5 0L 3 0L 3 3L 0 3L 0 5L 3 5L 3 8L 5 8L 5 5L 8 5L 8 3L 5 3L 5 0Z" transform="translate(8 7)"/>
</svg>
