<svg  version="1.1" xmlns="http://www.w3.org/2000/svg" style="display: none;">
	<symbol id="menu" viewBox="0 0 24 18" shape-rendering="geometricPrecision">
		<path id="path0_fill" fill-rule="evenodd" d="M 24 2L 0 2L 0 0L 24 0L 24 2ZM 24 10L 0 10L 0 8L 24 8L 24 10ZM 0 18L 24 18L 24 16L 0 16L 0 18Z"/>	
	</symbol>
	<symbol id="logo" viewBox="0 0 48 46" shape-rendering="geometricPrecision">
		<path id="path0_fill" d="M 35.4186 0.599723C 35.3243 0.322074 34.8215 -0.0789759 34.3501 0.013574C 26.5877 1.49437 21.528 9.66961 17.0654 18.6161C 16.9397 18.8629 16.7512 19.2948 16.5626 19.6342C 16.374 20.0044 16.1855 20.4054 15.9969 20.8065C 15.4941 21.3001 14.9913 21.7936 14.4884 22.3181C 10.1515 26.6062 7.35458 28.5806 2.64058 34.7815C 0.943537 37.0027 -0.030689 39.2239 0.000737645 40.3345C 0.0950176 42.1238 1.82348 42.2163 3.11198 41.7844C 3.17483 41.7536 3.23768 41.7227 3.30054 41.7227C 9.71158 39.8717 13.9227 31.7273 18.4168 20.9299C 19.9881 19.4799 21.528 17.7832 22.8794 16.3641C 21.4652 19.3874 19.2024 24.601 19.3281 27.8402C 19.391 29.2902 20.3966 30.555 21.1195 30.5242C 23.3822 30.3699 25.9592 25.8967 28.2219 21.1767C 27.3105 23.4287 26.5877 25.6807 26.9648 27.7785C 27.3734 29.9997 29.1647 30.9869 30.7674 30.6784C 31.3645 30.5859 31.5217 30.3699 31.4903 30.2774C 31.4588 30.1848 31.396 30.1231 31.2388 30.154C 30.4532 30.2774 29.3218 30.0614 29.0704 28.704C 28.2847 24.4776 34.2558 13.094 33.9101 11.3047C 33.753 10.5026 32.3388 9.45366 32.1188 9.51536C 31.9931 9.54621 31.9617 9.60791 31.9931 9.76216C 32.1502 10.5951 30.516 14.8833 30.5475 14.8216C 30.5475 14.8524 30.1389 15.963 29.6675 16.8268C 27.1534 22.7191 23.5393 29.3827 21.5594 29.4444C 21.1823 29.4444 20.868 29.0125 20.8366 28.303C 20.7423 24.4159 23.225 19.3257 25.0164 14.328C 25.0478 14.2971 27.7191 11.4589 28.6619 10.1015C 29.6989 8.65156 30.2646 7.13992 29.6047 6.33782C 29.4161 6.12187 29.1647 6.02932 28.9133 6.06017C 28.2219 6.09102 27.1534 7.69522 26.5877 8.52816C 25.582 10.009 25.0478 11.243 23.885 13.8344C 23.8221 14.0195 23.6022 14.3588 23.5079 14.5439C 21.4023 16.6726 20.868 17.4438 19.1396 19.1406C 19.2024 18.9863 19.2339 18.9863 19.2653 18.8321C 19.2653 18.8321 20.8052 15.1609 21.0566 14.7907C 24.4507 7.69522 28.8504 1.58692 34.0672 0.599723C 34.3815 0.538023 35.1986 0.692273 35.2615 0.692273C 35.3243 0.723123 35.4814 0.723123 35.4186 0.599723ZM 2.0749 41.5376C 1.98062 41.5685 1.85491 41.5685 1.7292 41.5685C 1.44636 41.5376 0.692124 41.2291 0.943538 40.1802C 1.50922 37.9282 3.92907 34.874 4.80902 33.7017C 6.9146 30.8635 8.61164 29.0742 10.6229 27.069C 12.0686 25.619 13.5456 24.2308 15.0227 22.8117C 10.8429 31.6965 6.66319 40.5813 2.0749 41.5376ZM 27.2477 8.62071C 27.6562 7.84947 28.0019 7.41757 28.0648 7.29417C 28.4419 6.73887 28.8504 6.30697 29.1961 6.36867C 30.4532 6.67717 28.379 9.94726 27.122 11.2121C 26.5877 11.7674 25.1735 13.2482 25.0478 13.3408C 25.6135 11.7983 26.5563 9.85471 27.2477 8.62071Z"/>
		<path id="path1_fill" d="M 23.3521 0.2468C 23.4778 0.1851 23.415 -5.88416e-08 23.2578 -5.88416e-08C 22.0008 0.0616999 20.7437 0.21595 19.4238 0.524449C 8.55015 3.05415 -0.155039 13.4506 0.00209429 23.7853C 0.033521 25.2044 0.222081 26.5618 0.536348 27.8267C 0.442068 27.0863 0.379214 26.2842 0.347787 25.4821C 0.222081 15.0548 8.51872 4.5041 18.8895 1.9744C 19.7695 1.75845 21.3408 1.5425 21.4665 1.51165C 21.7179 1.4808 22.535 0.555299 23.3521 0.2468Z" transform="translate(4.178 0.9)"/>
		<path id="path2_fill" d="M 9.73441 12.6331C 9.67156 6.86412 6.68602 2.36002 2.09773 0.046275C 1.97202 -0.0154249 1.78346 -0.0154249 1.65776 0.046275C 1.18636 0.262225 0.557824 0.509024 0.11785 0.694124C -0.0392829 0.755824 -0.0392829 0.971774 0.11785 1.03347C 4.95756 3.22382 8.1945 7.97472 8.25736 14.2064C 8.32021 17.785 7.31456 21.3328 5.58609 24.6028C 5.52324 24.6954 5.68037 24.7879 5.74322 24.6954C 8.32021 21.0551 9.79726 16.8287 9.73441 12.6331Z" transform="translate(34.264 2.589)"/>
		<path id="path3_fill" d="M 12.3332 8.88479C 7.99634 9.81029 4.13086 9.68689 0.736781 8.11354C 0.611074 7.99014 0.296807 8.82309 0.0453941 9.19329C -0.0488859 9.31669 0.0139672 9.47094 0.139674 9.53264C 3.37662 11.106 7.52494 11.6304 11.799 10.6432C 18.0214 9.22414 23.4897 5.15195 26.8209 4.70733e-07C 23.3011 4.319 18.1157 7.65079 12.3332 8.88479Z" transform="translate(12.212 28.58)"/>	
	</symbol>
	<symbol id="user" viewBox="0 0 17 24" shape-rendering="geometricPrecision">
		<path id="path2_fill" d="M 13.4632 12.264C 14.4232 10.9688 15 9.309 15 7.5C 15 3.35776 11.9782 0 8.25 0C 4.52176 0 1.5 3.35776 1.5 7.5C 1.5 9.309 2.07676 10.9688 3.03676 12.264C 1.27424 12.8738 0 14.5297 0 16.5L 0 19.5C 0 21.9855 2.01451 24 4.5 24L 12 24C 14.4855 24 16.5 21.9855 16.5 19.5L 16.5 16.5C 16.5 14.5297 15.2258 12.8738 13.4632 12.264ZM 3 7.5C 3 4.18648 5.35048 1.5 8.25 1.5C 11.1495 1.5 13.5 4.18648 13.5 7.5C 13.5 10.8135 11.1495 13.5 8.25 13.5C 5.35048 13.5 3 10.8135 3 7.5ZM 15 19.125C 15 20.9888 13.3515 22.5 11.3182 22.5L 5.18176 22.5C 3.14851 22.5 1.5 20.9888 1.5 19.125L 1.5 16.875C 1.5 15.2805 2.70976 13.9522 4.332 13.599C 5.43751 14.478 6.78748 15 8.25 15C 9.71251 15 11.0625 14.478 12.168 13.599C 13.7902 13.9522 15 15.2805 15 16.875L 15 19.125Z"/>
	</symbol>
	<symbol id="notification" viewBox="0 0 23 24" shape-rendering="geometricPrecision">
		<path id="path0_fill" d="M 19.2 14.4L 19.2 8.00001C 19.2 3.58158 15.6184 0 11.2 0C 6.78159 0 3.20001 3.58158 3.20001 8.00001L 3.20001 14.4L 1.28453e-08 20.8L 7.2808 20.8C 7.6512 22.6256 9.2648 24 11.2 24C 13.1352 24 14.7488 22.6256 15.1192 20.8L 22.4 20.8L 19.2 14.4ZM 11.2 22.4C 10.1568 22.4 9.27762 21.7304 8.94718 20.8L 13.4536 20.8C 13.1224 21.7304 12.2432 22.4 11.2 22.4ZM 2.40002 19.2L 4.8 14.4L 4.8 8.00001C 4.8 4.46561 7.66559 1.60002 11.2 1.60002C 14.7344 1.60002 17.6 4.46561 17.6 8.00001L 17.6 14.4L 20 19.2L 2.40002 19.2L 2.40002 19.2Z"/>
		<path id="path1_fill" d="M 19.2 14.4L 19.2 8.00001C 19.2 3.58158 15.6184 0 11.2 0C 6.78159 0 3.20001 3.58158 3.20001 8.00001L 3.20001 14.4L 0 20.8L 7.2808 20.8C 7.6512 22.6256 9.2648 24 11.2 24C 13.1352 24 14.7488 22.6256 15.1192 20.8L 22.4 20.8L 19.2 14.4ZM 11.2 22.4C 10.1568 22.4 9.27762 21.7304 8.94718 20.8L 13.4536 20.8C 13.1224 21.7304 12.2432 22.4 11.2 22.4Z" fill="currentColor"/>
	</symbol>	
	<symbol id="booking" viewBox="0 0 24 24" shape-rendering="geometricPrecision">
		<path id="path0_fill" fill-rule="evenodd" d="M 12.7125 2.25C 16.6583 1.1955 21 0 21 0C 22.6567 0 24 1.34326 24 3L 24 18.75C 24 20.4067 22.5398 21.3518 21 21.75C 21 21.75 16.959 22.875 12.744 24L 11.2253 24C 7.04474 22.875 3 21.75 3 21.75C 1.41376 21.234 0 20.4067 0 18.75L 0 3C 0 1.34326 1.34326 0 3 0C 3 0 7.46625 1.242 11.2245 2.25C 11.3893 2.25 11.5547 2.25217 11.7201 2.25433C 12.0513 2.25867 12.3829 2.263 12.7125 2.25ZM 3 20.25C 3 20.25 7.1535 21.3975 11.25 22.4985L 11.25 3.75L 3 1.5C 2.17126 1.5 1.5 2.172 1.5 3L 1.5 18.75C 1.5 19.5787 2.14801 20.016 3 20.25ZM 21 20.25C 21.8047 19.992 22.5 19.5787 22.5 18.75L 22.5 3C 22.5 2.17126 21.8287 1.5 21 1.5L 20 1.77274L 20 10L 17.5 9L 15 10.5L 15 3.13635L 12.75 3.75L 12.75 22.482C 16.9177 21.3863 21 20.25 21 20.25Z"/>
		<path id="path1_fill" fill-rule="evenodd" d="M 12.7125 2.25C 16.6583 1.1955 21 0 21 0C 22.6567 0 24 1.34326 24 3L 24 18.75C 24 20.4067 22.5398 21.3518 21 21.75C 21 21.75 16.959 22.875 12.744 24L 11.2253 24C 7.04474 22.875 3 21.75 3 21.75C 1.41376 21.234 0 20.4067 0 18.75L 0 3C 0 1.34326 1.34326 0 3 0C 3 0 7.46625 1.242 11.2245 2.25C 11.3893 2.25 11.5547 2.25217 11.7201 2.25433C 12.0513 2.25867 12.3829 2.263 12.7125 2.25ZM 21 20.25C 21.8047 19.992 22.5 19.5787 22.5 18.75L 22.5 3C 22.5 2.17126 21.8287 1.5 21 1.5L 20 1.77274L 20 10L 17.5 9L 15 10.5L 15 3.13635L 12.75 3.75L 12.75 22.482C 16.9177 21.3863 21 20.25 21 20.25Z" fill="currentColor"/>
	</symbol>	
	<symbol id="backcall" viewBox="0 0 24 24" shape-rendering="geometricPrecision">
		<path id="path0_fill" d="M 0.713715 7.10581C 0.713715 7.10581 3.76859 12.2979 7.71757 16.2351C 11.9175 20.4233 16.8234 23.1684 16.8234 23.1684C 18.4429 23.9998 20.039 24.3919 21.2665 23.1684L 23.49 20.9527C 24.1017 20.341 24.2351 19.2508 23.49 18.7371L 19.0469 15.4155C 18.2939 14.9057 17.439 14.8038 16.8234 15.4155L 15.5096 16.7253C 13.9685 15.5802 12.2548 14.1803 10.7136 12.6469C 9.35285 11.2901 8.14109 9.81559 7.13326 8.46266L 8.49403 7.10581C 9.10579 6.49405 9.00383 5.63916 8.49403 4.89015L 5.16073 0.458819C 4.54505 -0.15294 3.5529 -0.15294 2.93722 0.458819L 0.713715 2.67448C -0.509802 3.898 0.0784275 5.35681 0.713715 7.10581ZM 1.92939 3.68232L 3.34114 2.27449C 3.73329 1.88626 4.36466 1.75292 4.75681 2.27449L 6.87836 5.09407C 7.20385 5.57249 7.27051 6.11366 6.87836 6.5019L 5.09406 8.28227C 8.73324 14.1842 15.2783 18.4743 15.6861 18.7645L 17.4273 17.0273C 17.8155 16.639 18.3606 16.7057 18.839 17.0273L 21.6664 19.141C 22.09 19.4978 21.9566 20.0625 21.6664 20.5488L 20.2547 21.9566C 19.8625 22.3449 18.4429 22.3253 17.9332 22.0586C 17.9332 22.0586 11.3018 17.9018 8.49011 14.8587C 6.05092 12.3254 3.13722 8.49011 1.82351 5.99602C 1.53331 5.41563 1.37253 4.19996 1.92939 3.68232Z"/>
		<path id="path1_fill" d="M 7.41561 9.01952L 2.50194 9.01952L 10.5097 1.04313L 9.45873 -4.67483e-10L 1.45881 7.96855L 1.48234 3.10977C 1.48234 2.70193 1.14901 2.37253 0.741169 2.37253C 0.33333 2.37253 0 2.70193 0 3.10977L 0 9.75677C 0 9.97637 0.0901952 10.1528 0.235292 10.2744C 0.368624 10.4117 0.556857 10.4979 0.764698 10.4979L 7.41953 10.4979C 7.83129 10.4979 8.1607 10.1685 8.1607 9.76069C 8.15678 9.34893 7.82737 9.01952 7.41561 9.01952Z" transform="translate(13.49 0)"/>
		<path id="path0_fill" d="M 0.713715 7.10581C 0.713715 7.10581 3.76859 12.2979 7.71757 16.2351C 11.9175 20.4233 16.8234 23.1684 16.8234 23.1684C 18.443 23.9998 20.039 24.3919 21.2665 23.1684L 23.49 20.9527C 24.1017 20.341 24.2351 19.2508 23.49 18.7371L 19.0469 15.4155C 18.2939 14.9057 17.439 14.8038 16.8234 15.4155L 15.5096 16.7253C 13.9685 15.5802 12.2548 14.1803 10.7136 12.6469C 9.35284 11.2901 8.14109 9.81559 7.13326 8.46266L 8.49403 7.10581C 9.10579 6.49405 9.00383 5.63916 8.49403 4.89015L 5.16073 0.458819C 4.54505 -0.15294 3.5529 -0.15294 2.93722 0.458819L 0.713715 2.67448C -0.509802 3.898 0.0784275 5.35681 0.713715 7.10581Z" fill="currentColor"/>
		<path id="path1_fill" d="M 7.41561 9.01952L 2.50194 9.01952L 10.5097 1.04313L 9.45873 -4.67483e-10L 1.45881 7.96855L 1.48234 3.10977C 1.48234 2.70193 1.14901 2.37253 0.741169 2.37253C 0.33333 2.37253 0 2.70193 0 3.10977L 0 9.75677C 0 9.97637 0.0901952 10.1528 0.235292 10.2744C 0.368624 10.4117 0.556857 10.4979 0.764698 10.4979L 7.41953 10.4979C 7.83129 10.4979 8.1607 10.1685 8.1607 9.76069C 8.15678 9.34893 7.82737 9.01952 7.41561 9.01952Z" transform="translate(13.49 0)" fill="currentColor"/>		
	</symbol>
	<symbol id="reviews" viewBox="0 0 24 24" shape-rendering="geometricPrecision">
		<path id="path0_fill" d="M 12 0C 5.37224 0 0 4.70098 0 10.5C 0 13.8143 1.75875 16.7647 4.5 18.6893L 4.5 24L 9.75675 20.8102C 10.4843 20.9303 11.2327 21 12 21C 18.6278 21 24 16.299 24 10.5C 24 4.70098 18.6278 0 12 0ZM 12 19.5C 11.124 19.5 10.278 19.398 9.46498 19.2247L 5.93396 21.3472L 5.98122 17.8687C 3.27451 16.2405 1.5 13.5495 1.5 10.5C 1.5 5.52976 6.20098 1.5 12 1.5C 17.799 1.5 22.5 5.52976 22.5 10.5C 22.5 15.4702 17.799 19.5 12 19.5Z"/>
		<path id="path1_fill" d="M 12 6L 13.1226 9.45492L 16.7553 9.45492L 13.8164 11.5902L 14.9389 15.0451L 12 12.9098L 9.06107 15.0451L 10.1836 11.5902L 7.24472 9.45492L 10.8774 9.45492L 12 6Z"/>
		<path id="path2_fill" fill-rule="evenodd" d="M 0 10.5C 0 4.70099 5.37225 0 12 0C 18.6277 0 24 4.70099 24 10.5C 24 16.299 18.6277 21 12 21C 11.2327 21 10.4843 20.9303 9.75677 20.8102L 4.5 24L 4.5 18.6893C 1.75873 16.7647 0 13.8143 0 10.5ZM 13.1226 9.45493L 12 6L 10.8774 9.45493L 7.24469 9.45493L 10.1837 11.5902L 9.0611 15.0451L 12 12.9098L 14.9389 15.0451L 13.8163 11.5902L 16.7553 9.45493L 13.1226 9.45493Z" fill="currentColor"/>
	</symbol>
	<symbol id="star" viewBox="0 0 10 10" shape-rendering="geometricPrecision">
		<path id="path0_fill" d="M 5 0L 6.12257 3.43614L 9.75528 3.43614L 6.81636 5.55979L 7.93893 8.99593L 5 6.87228L 2.06107 8.99593L 3.18364 5.55979L 0.244717 3.43614L 3.87743 3.43614L 5 0Z"/>
	</symbol>
	<symbol id="extra" viewBox="0 0 23 6" shape-rendering="geometricPrecision">
		<path id="path0_fill" d="M 5 2.48641C 5 3.85962 3.88071 4.97283 2.5 4.97283C 1.11929 4.97283 0 3.85962 0 2.48641C 0 1.11321 1.11929 0 2.5 0C 3.88071 0 5 1.11321 5 2.48641Z"/>
		<path id="path1_fill" d="M 5 2.48641C 5 3.85962 3.88071 4.97283 2.5 4.97283C 1.11929 4.97283 0 3.85962 0 2.48641C 0 1.11321 1.11929 0 2.5 0C 3.88071 0 5 1.11321 5 2.48641Z" transform="translate(9 0)"/>
		<path id="path2_fill" d="M 5 2.48641C 5 3.85962 3.88071 4.97283 2.5 4.97283C 1.11929 4.97283 0 3.85962 0 2.48641C 0 1.11321 1.11929 0 2.5 0C 3.88071 0 5 1.11321 5 2.48641Z" transform="translate(18 0)"/>
	</symbol>
	<symbol id="close" viewBox="0 0 24 24" shape-rendering="geometricPrecision">
		<path id="path0_fill" d="M 16.2878 7.71224C 15.9923 7.41675 15.5138 7.41675 15.219 7.71224L 11.9962 10.935L 8.81847 7.75725C 8.52522 7.464 8.05047 7.464 7.758 7.75725C 7.46475 8.05051 7.46475 8.52526 7.758 8.81773L 10.9358 11.9955L 7.73627 15.195C 7.44078 15.4905 7.44078 15.9689 7.73627 16.2637C 8.03176 16.5585 8.51027 16.5585 8.80502 16.2637L 12.0045 13.0642L 15.1823 16.242C 15.4755 16.5352 15.9503 16.5352 16.2428 16.242C 16.536 15.9487 16.536 15.474 16.2428 15.1815L 13.065 12.0037L 16.2878 8.78098C 16.5833 8.48623 16.5833 8.00702 16.2878 7.71224ZM 12 0C 5.37224 0 0 5.37224 0 12C 0 18.6278 5.37224 24 12 24C 18.627 24 24 18.627 24 12C 24 5.37302 18.6278 0 12 0ZM 12 22.5C 6.20098 22.5 1.5 17.799 1.5 12C 1.5 6.20098 6.20098 1.5 12 1.5C 17.799 1.5 22.5 6.20098 22.5 12C 22.5 17.799 17.799 22.5 12 22.5Z"/>
	</symbol>	
	<symbol id="phone" viewBox="0 0 16 16" shape-rendering="geometricPrecision">
		<path id="path0_fill" d="M 0.47581 4.73748C 0.47581 4.73748 2.51239 8.19908 5.14504 10.824C 7.94502 13.6163 11.2156 15.4465 11.2156 15.4465C 12.2953 16.0008 13.3593 16.2622 14.1776 15.4465L 15.66 13.9693C 16.0678 13.5614 16.1567 12.8346 15.66 12.4921L 12.6979 10.2776C 12.196 9.93773 11.626 9.86975 11.2156 10.2776L 10.3398 11.1509C 9.31232 10.3874 8.16985 9.45405 7.14241 8.43178C 6.23523 7.52716 5.42739 6.5441 4.75551 5.6421L 5.66269 4.73748C 6.07053 4.32962 6.00255 3.75966 5.66269 3.26029L 3.44049 0.305897C 3.03003 -0.101966 2.3686 -0.101966 1.95815 0.305897L 0.47581 1.78309C -0.339868 2.59882 0.052285 3.57141 0.47581 4.73748ZM 1.28626 2.45502L 2.22743 1.51641C 2.48886 1.25758 2.90977 1.16868 3.17121 1.51641L 4.58557 3.39624C 4.80256 3.71521 4.84701 4.07601 4.58557 4.33485L 3.39604 5.52183C 5.82216 9.45666 10.1855 12.3169 10.4574 12.5104L 11.6182 11.3522C 11.877 11.0933 12.2404 11.1378 12.5593 11.3522L 14.4443 12.7614C 14.7266 12.9993 14.6378 13.3758 14.4443 13.7L 13.5031 14.6386C 13.2417 14.8974 12.2953 14.8844 11.9554 14.7066C 11.9554 14.7066 7.53456 11.9352 5.66007 9.90635C 4.03394 8.21739 2.09148 5.6604 1.21567 3.99758C 1.02221 3.61063 0.915021 2.80013 1.28626 2.45502Z"/>
	</symbol>	
	<symbol id="lock" viewBox="0 0 10 16" shape-rendering="geometricPrecision">
		<path id="path0_fill" d="M 5 10C 4.724 10 4.5 10.224 4.5 10.5L 4.5 12.5C 4.5 12.776 4.724 13 5 13C 5.276 13 5.5 12.776 5.5 12.5L 5.5 10.5C 5.5 10.224 5.276 10 5 10ZM 9 8.00899L 9 4C 9 1.79099 7.20901 0 5 0C 2.79099 0 1 1.79099 1 4L 1 8.00899C 0.37499 8.844 0 9.87699 0 11C 0 13.7615 2.23851 16 5 16C 7.7615 16 10 13.7615 10 11C 10 9.87699 9.62501 8.844 9 8.00899ZM 2 4C 2 2.34301 3.34301 1 5 1C 6.65699 1 8 2.34301 8 4L 8 7.00701C 7.1635 6.37749 6.12699 6 5 6C 3.87299 6 2.83651 6.37749 2 7.00701L 2 4ZM 5 15C 2.79099 15 1 13.209 1 11C 1 8.79099 2.79099 7 5 7C 7.134 7 9 8.866 9 11C 9 13.209 7.20901 15 5 15Z"/>
	</symbol>
	<symbol id="chevron-left" viewBox="0 0 13 21" shape-rendering="geometricPrecision">
		<path id="path2_fill" fill-rule="evenodd" d="M 0 10.5L 10.5 0L 12.5 2L 4 10.5L 12.5 19L 10.5 21L 0 10.5Z"/>
	</symbol>	
	<symbol id="chevron-right" viewBox="0 0 13 21" shape-rendering="geometricPrecision">
		<path id="path1_fill" fill-rule="evenodd" d="M 0 10.5L 10.5 0L 12.5 2L 4 10.5L 12.5 19L 10.5 21L 0 10.5Z" transform="rotate(180,6.5,10.5)"/>
	</symbol>		
	<symbol id="plus" viewBox="0 0 18 18" shape-rendering="geometricPrecision">
		<path id="path2_fill" fill-rule="evenodd" d="M 9.5 0L 8 0L 8 8L 0 8L 0 9.5L 8 9.5L 8 17.5L 9.5 17.5L 9.5 9.5L 17.5 9.5L 17.5 8L 9.5 8L 9.5 0Z"/>
	</symbol>	
	<symbol id="send" viewBox="0 0 24 24" shape-rendering="geometricPrecision">
		<path id="path1_fill" d="M 23.1934 0.0584204C 22.3285 0.478889 8.40846e-11 11.281 8.40846e-11 11.281C 8.40846e-11 11.281 7.52062 15.8142 7.48175 15.7701C 7.4698 15.7566 11.9708 24 11.9708 24C 11.9708 24 23.7545 1.18068 23.9416 0.806564C 24.1055 0.338955 23.7545 -0.175757 23.1934 0.0584204ZM 2.99273 11.281L 20.2007 3.05111L 8.22993 14.2737C 8.22696 14.27 2.99273 11.281 2.99273 11.281ZM 11.9708 21.0073C 11.9708 21.0073 9.63053 16.5003 8.97812 15.0219L 21.005 3.63393L 11.9708 21.0073Z"/>
	</symbol>
	<symbol id="photo" viewBox="0 0 24 21" shape-rendering="geometricPrecision">
		<path id="path0_fill" d="M 21 3L 18.75 3L 18 1.5C 17.5582 0.62698 17.3287 0 16.5 0L 7.5 0C 6.67126 0 6.39749 0.71549 6 1.5L 5.25 3L 3 3C 1.34325 3 0 4.34326 0 6L 0 18C 0 19.6567 1.34325 21 3 21L 21 21C 22.6567 21 24 19.6567 24 18L 24 6C 24 4.34326 22.6567 3 21 3ZM 22.5 18C 22.5 18.8287 21.8287 19.5 21 19.5L 3 19.5C 2.17125 19.5 1.5 18.8287 1.5 18L 1.5 6C 1.5 5.172 2.17125 4.5 3 4.5L 6 4.5L 6.75 3C 7.28024 2.12776 7.42126 1.5 8.25 1.5L 15.75 1.5C 16.5787 1.5 16.7198 2.12698 17.25 3L 18 4.5L 21 4.5C 21.8287 4.5 22.5 5.17126 22.5 6L 22.5 18ZM 12 6C 8.68651 6 6 8.68651 6 12C 6 15.3135 8.68651 18 12 18C 15.3135 18 18 15.3135 18 12C 18 8.68651 15.3135 6 12 6ZM 12 16.5C 9.51451 16.5 7.5 14.4855 7.5 12C 7.5 9.51451 9.51451 7.5 12 7.5C 14.4855 7.5 16.5 9.51451 16.5 12C 16.5 14.4855 14.4855 16.5 12 16.5Z"/>
	</symbol>
	<symbol id="clock" viewBox="0 0 12 12" shape-rendering="geometricPrecision">
		<path id="path0_fill" d="M 6 0C 2.68627 0 0 2.68627 0 6C 0 9.31373 2.68627 12 6 12C 9.31373 12 12 9.31373 12 6C 12 2.68627 9.31373 0 6 0ZM 6 11.251C 3.1 11.251 0.74902 8.9 0.74902 6C 0.74902 3.1 3.1 0.74902 6 0.74902C 8.9 0.74902 11.251 3.1 11.251 6C 11.251 8.9 8.9 11.251 6 11.251Z"/>
		<path id="path1_fill" d="M 3.74902 4.13333L 0.74902 4.13333L 0.74902 0.37451C 0.74902 0.166667 0.580392 0 0.37451 0C 0.168627 0 -2.39354e-07 0.168627 -2.39354e-07 0.37451L -2.39354e-07 4.50784C -2.39354e-07 4.71569 0.168627 4.88235 0.37451 4.88235L 3.74902 4.88235C 3.95686 4.88235 4.12353 4.71373 4.12353 4.50784C 4.12353 4.30196 3.95686 4.13333 3.74902 4.13333Z" transform="translate(5.61 1.5)"/>		
	</symbol>	
	<symbol id="check" viewBox="0 0 24 24" shape-rendering="geometricPrecision">
		<circle cx="12" cy="12" r="11" stroke="#101010" opacity="0.75" fill="transparent"></circle>
		<path id="path1_fill" fill-rule="evenodd" d="M 24 12C 24 18.6274 18.6274 24 12 24C 5.37256 24 0 18.6274 0 12C 0 5.37256 5.37256 0 12 0C 18.6274 0 24 5.37256 24 12ZM 6.29285 12.2928C 6.68347 11.9023 7.31653 11.9023 7.70715 12.2928L 9.95129 14.5371L 16.2474 7.34155C 16.6111 6.9259 17.2429 6.88379 17.6584 7.24744C 18.0741 7.61108 18.1162 8.24292 17.7526 8.65857L 10.7526 16.6586C 10.3717 17.0939 9.7019 17.1162 9.29285 16.7072L 6.29285 13.7072C 5.90234 13.3167 5.90234 12.6835 6.29285 12.2928Z" fill="currentColor"/>	
	</symbol>	
	<symbol id="menu-close" viewBox="0 0 19 19" shape-rendering="geometricPrecision">
		<path id="path0_fill" d="M 7.7782 9.19241L 0 16.9706L 1.41418 18.3848L 9.19238 10.6066L 16.9705 18.3848L 18.3848 16.9706L 10.6066 9.1924L 18.3848 1.41422L 16.9706 0L 9.19238 7.7782L 1.41418 1.52588e-05L 0 1.41423L 7.7782 9.19241Z"/>
	</symbol>																
</svg>	