<svg  version="1.1" xmlns="http://www.w3.org/2000/svg" style="display: none;">
	<symbol id="menu" viewBox="0 0 24 18" shape-rendering="geometricPrecision">
		<path id="path0_fill" fill-rule="evenodd" d="M 24 2L 0 2L 0 0L 24 0L 24 2ZM 24 10L 0 10L 0 8L 24 8L 24 10ZM 0 18L 24 18L 24 16L 0 16L 0 18Z"/>	
	</symbol>
	<symbol id="logo" viewBox="0 0 48 46" shape-rendering="geometricPrecision">
		<path id="path0_fill" d="M 35.4186 0.599723C 35.3243 0.322074 34.8215 -0.0789759 34.3501 0.013574C 26.5877 1.49437 21.528 9.66961 17.0654 18.6161C 16.9397 18.8629 16.7512 19.2948 16.5626 19.6342C 16.374 20.0044 16.1855 20.4054 15.9969 20.8065C 15.4941 21.3001 14.9913 21.7936 14.4884 22.3181C 10.1515 26.6062 7.35458 28.5806 2.64058 34.7815C 0.943537 37.0027 -0.030689 39.2239 0.000737645 40.3345C 0.0950176 42.1238 1.82348 42.2163 3.11198 41.7844C 3.17483 41.7536 3.23768 41.7227 3.30054 41.7227C 9.71158 39.8717 13.9227 31.7273 18.4168 20.9299C 19.9881 19.4799 21.528 17.7832 22.8794 16.3641C 21.4652 19.3874 19.2024 24.601 19.3281 27.8402C 19.391 29.2902 20.3966 30.555 21.1195 30.5242C 23.3822 30.3699 25.9592 25.8967 28.2219 21.1767C 27.3105 23.4287 26.5877 25.6807 26.9648 27.7785C 27.3734 29.9997 29.1647 30.9869 30.7674 30.6784C 31.3645 30.5859 31.5217 30.3699 31.4903 30.2774C 31.4588 30.1848 31.396 30.1231 31.2388 30.154C 30.4532 30.2774 29.3218 30.0614 29.0704 28.704C 28.2847 24.4776 34.2558 13.094 33.9101 11.3047C 33.753 10.5026 32.3388 9.45366 32.1188 9.51536C 31.9931 9.54621 31.9617 9.60791 31.9931 9.76216C 32.1502 10.5951 30.516 14.8833 30.5475 14.8216C 30.5475 14.8524 30.1389 15.963 29.6675 16.8268C 27.1534 22.7191 23.5393 29.3827 21.5594 29.4444C 21.1823 29.4444 20.868 29.0125 20.8366 28.303C 20.7423 24.4159 23.225 19.3257 25.0164 14.328C 25.0478 14.2971 27.7191 11.4589 28.6619 10.1015C 29.6989 8.65156 30.2646 7.13992 29.6047 6.33782C 29.4161 6.12187 29.1647 6.02932 28.9133 6.06017C 28.2219 6.09102 27.1534 7.69522 26.5877 8.52816C 25.582 10.009 25.0478 11.243 23.885 13.8344C 23.8221 14.0195 23.6022 14.3588 23.5079 14.5439C 21.4023 16.6726 20.868 17.4438 19.1396 19.1406C 19.2024 18.9863 19.2339 18.9863 19.2653 18.8321C 19.2653 18.8321 20.8052 15.1609 21.0566 14.7907C 24.4507 7.69522 28.8504 1.58692 34.0672 0.599723C 34.3815 0.538023 35.1986 0.692273 35.2615 0.692273C 35.3243 0.723123 35.4814 0.723123 35.4186 0.599723ZM 2.0749 41.5376C 1.98062 41.5685 1.85491 41.5685 1.7292 41.5685C 1.44636 41.5376 0.692124 41.2291 0.943538 40.1802C 1.50922 37.9282 3.92907 34.874 4.80902 33.7017C 6.9146 30.8635 8.61164 29.0742 10.6229 27.069C 12.0686 25.619 13.5456 24.2308 15.0227 22.8117C 10.8429 31.6965 6.66319 40.5813 2.0749 41.5376ZM 27.2477 8.62071C 27.6562 7.84947 28.0019 7.41757 28.0648 7.29417C 28.4419 6.73887 28.8504 6.30697 29.1961 6.36867C 30.4532 6.67717 28.379 9.94726 27.122 11.2121C 26.5877 11.7674 25.1735 13.2482 25.0478 13.3408C 25.6135 11.7983 26.5563 9.85471 27.2477 8.62071Z"/>
		<path id="path1_fill" d="M 23.3521 0.2468C 23.4778 0.1851 23.415 -5.88416e-08 23.2578 -5.88416e-08C 22.0008 0.0616999 20.7437 0.21595 19.4238 0.524449C 8.55015 3.05415 -0.155039 13.4506 0.00209429 23.7853C 0.033521 25.2044 0.222081 26.5618 0.536348 27.8267C 0.442068 27.0863 0.379214 26.2842 0.347787 25.4821C 0.222081 15.0548 8.51872 4.5041 18.8895 1.9744C 19.7695 1.75845 21.3408 1.5425 21.4665 1.51165C 21.7179 1.4808 22.535 0.555299 23.3521 0.2468Z" transform="translate(4.178 0.9)"/>
		<path id="path2_fill" d="M 9.73441 12.6331C 9.67156 6.86412 6.68602 2.36002 2.09773 0.046275C 1.97202 -0.0154249 1.78346 -0.0154249 1.65776 0.046275C 1.18636 0.262225 0.557824 0.509024 0.11785 0.694124C -0.0392829 0.755824 -0.0392829 0.971774 0.11785 1.03347C 4.95756 3.22382 8.1945 7.97472 8.25736 14.2064C 8.32021 17.785 7.31456 21.3328 5.58609 24.6028C 5.52324 24.6954 5.68037 24.7879 5.74322 24.6954C 8.32021 21.0551 9.79726 16.8287 9.73441 12.6331Z" transform="translate(34.264 2.589)"/>
		<path id="path3_fill" d="M 12.3332 8.88479C 7.99634 9.81029 4.13086 9.68689 0.736781 8.11354C 0.611074 7.99014 0.296807 8.82309 0.0453941 9.19329C -0.0488859 9.31669 0.0139672 9.47094 0.139674 9.53264C 3.37662 11.106 7.52494 11.6304 11.799 10.6432C 18.0214 9.22414 23.4897 5.15195 26.8209 4.70733e-07C 23.3011 4.319 18.1157 7.65079 12.3332 8.88479Z" transform="translate(12.212 28.58)"/>	
	</symbol>
	<symbol id="user" viewBox="0 0 17 24" shape-rendering="geometricPrecision">
		<path id="path2_fill" d="M 13.4632 12.264C 14.4232 10.9688 15 9.309 15 7.5C 15 3.35776 11.9782 0 8.25 0C 4.52176 0 1.5 3.35776 1.5 7.5C 1.5 9.309 2.07676 10.9688 3.03676 12.264C 1.27424 12.8738 0 14.5297 0 16.5L 0 19.5C 0 21.9855 2.01451 24 4.5 24L 12 24C 14.4855 24 16.5 21.9855 16.5 19.5L 16.5 16.5C 16.5 14.5297 15.2258 12.8738 13.4632 12.264ZM 3 7.5C 3 4.18648 5.35048 1.5 8.25 1.5C 11.1495 1.5 13.5 4.18648 13.5 7.5C 13.5 10.8135 11.1495 13.5 8.25 13.5C 5.35048 13.5 3 10.8135 3 7.5ZM 15 19.125C 15 20.9888 13.3515 22.5 11.3182 22.5L 5.18176 22.5C 3.14851 22.5 1.5 20.9888 1.5 19.125L 1.5 16.875C 1.5 15.2805 2.70976 13.9522 4.332 13.599C 5.43751 14.478 6.78748 15 8.25 15C 9.71251 15 11.0625 14.478 12.168 13.599C 13.7902 13.9522 15 15.2805 15 16.875L 15 19.125Z"/>
	</symbol>
	<symbol id="notification" viewBox="0 0 23 24" shape-rendering="geometricPrecision">
		<path id="path0_fill" d="M 19.2 14.4L 19.2 8.00001C 19.2 3.58158 15.6184 0 11.2 0C 6.78159 0 3.20001 3.58158 3.20001 8.00001L 3.20001 14.4L 1.28453e-08 20.8L 7.2808 20.8C 7.6512 22.6256 9.2648 24 11.2 24C 13.1352 24 14.7488 22.6256 15.1192 20.8L 22.4 20.8L 19.2 14.4ZM 11.2 22.4C 10.1568 22.4 9.27762 21.7304 8.94718 20.8L 13.4536 20.8C 13.1224 21.7304 12.2432 22.4 11.2 22.4ZM 2.40002 19.2L 4.8 14.4L 4.8 8.00001C 4.8 4.46561 7.66559 1.60002 11.2 1.60002C 14.7344 1.60002 17.6 4.46561 17.6 8.00001L 17.6 14.4L 20 19.2L 2.40002 19.2L 2.40002 19.2Z"/>
		<path id="path1_fill" d="M 19.2 14.4L 19.2 8.00001C 19.2 3.58158 15.6184 0 11.2 0C 6.78159 0 3.20001 3.58158 3.20001 8.00001L 3.20001 14.4L 0 20.8L 7.2808 20.8C 7.6512 22.6256 9.2648 24 11.2 24C 13.1352 24 14.7488 22.6256 15.1192 20.8L 22.4 20.8L 19.2 14.4ZM 11.2 22.4C 10.1568 22.4 9.27762 21.7304 8.94718 20.8L 13.4536 20.8C 13.1224 21.7304 12.2432 22.4 11.2 22.4Z" fill="currentColor"/>
	</symbol>	
	<symbol id="booking" viewBox="0 0 24 24" shape-rendering="geometricPrecision">
		<path id="path0_fill" fill-rule="evenodd" d="M 12.7125 2.25C 16.6583 1.1955 21 0 21 0C 22.6567 0 24 1.34326 24 3L 24 18.75C 24 20.4067 22.5398 21.3518 21 21.75C 21 21.75 16.959 22.875 12.744 24L 11.2253 24C 7.04474 22.875 3 21.75 3 21.75C 1.41376 21.234 0 20.4067 0 18.75L 0 3C 0 1.34326 1.34326 0 3 0C 3 0 7.46625 1.242 11.2245 2.25C 11.3893 2.25 11.5547 2.25217 11.7201 2.25433C 12.0513 2.25867 12.3829 2.263 12.7125 2.25ZM 3 20.25C 3 20.25 7.1535 21.3975 11.25 22.4985L 11.25 3.75L 3 1.5C 2.17126 1.5 1.5 2.172 1.5 3L 1.5 18.75C 1.5 19.5787 2.14801 20.016 3 20.25ZM 21 20.25C 21.8047 19.992 22.5 19.5787 22.5 18.75L 22.5 3C 22.5 2.17126 21.8287 1.5 21 1.5L 20 1.77274L 20 10L 17.5 9L 15 10.5L 15 3.13635L 12.75 3.75L 12.75 22.482C 16.9177 21.3863 21 20.25 21 20.25Z"/>
		<path id="path1_fill" fill-rule="evenodd" d="M 12.7125 2.25C 16.6583 1.1955 21 0 21 0C 22.6567 0 24 1.34326 24 3L 24 18.75C 24 20.4067 22.5398 21.3518 21 21.75C 21 21.75 16.959 22.875 12.744 24L 11.2253 24C 7.04474 22.875 3 21.75 3 21.75C 1.41376 21.234 0 20.4067 0 18.75L 0 3C 0 1.34326 1.34326 0 3 0C 3 0 7.46625 1.242 11.2245 2.25C 11.3893 2.25 11.5547 2.25217 11.7201 2.25433C 12.0513 2.25867 12.3829 2.263 12.7125 2.25ZM 21 20.25C 21.8047 19.992 22.5 19.5787 22.5 18.75L 22.5 3C 22.5 2.17126 21.8287 1.5 21 1.5L 20 1.77274L 20 10L 17.5 9L 15 10.5L 15 3.13635L 12.75 3.75L 12.75 22.482C 16.9177 21.3863 21 20.25 21 20.25Z" fill="currentColor"/>
	</symbol>	
	<symbol id="backcall" viewBox="0 0 24 24" shape-rendering="geometricPrecision">
		<path id="path0_fill" d="M 0.713715 7.10581C 0.713715 7.10581 3.76859 12.2979 7.71757 16.2351C 11.9175 20.4233 16.8234 23.1684 16.8234 23.1684C 18.4429 23.9998 20.039 24.3919 21.2665 23.1684L 23.49 20.9527C 24.1017 20.341 24.2351 19.2508 23.49 18.7371L 19.0469 15.4155C 18.2939 14.9057 17.439 14.8038 16.8234 15.4155L 15.5096 16.7253C 13.9685 15.5802 12.2548 14.1803 10.7136 12.6469C 9.35285 11.2901 8.14109 9.81559 7.13326 8.46266L 8.49403 7.10581C 9.10579 6.49405 9.00383 5.63916 8.49403 4.89015L 5.16073 0.458819C 4.54505 -0.15294 3.5529 -0.15294 2.93722 0.458819L 0.713715 2.67448C -0.509802 3.898 0.0784275 5.35681 0.713715 7.10581ZM 1.92939 3.68232L 3.34114 2.27449C 3.73329 1.88626 4.36466 1.75292 4.75681 2.27449L 6.87836 5.09407C 7.20385 5.57249 7.27051 6.11366 6.87836 6.5019L 5.09406 8.28227C 8.73324 14.1842 15.2783 18.4743 15.6861 18.7645L 17.4273 17.0273C 17.8155 16.639 18.3606 16.7057 18.839 17.0273L 21.6664 19.141C 22.09 19.4978 21.9566 20.0625 21.6664 20.5488L 20.2547 21.9566C 19.8625 22.3449 18.4429 22.3253 17.9332 22.0586C 17.9332 22.0586 11.3018 17.9018 8.49011 14.8587C 6.05092 12.3254 3.13722 8.49011 1.82351 5.99602C 1.53331 5.41563 1.37253 4.19996 1.92939 3.68232Z"/>
		<path id="path1_fill" d="M 7.41561 9.01952L 2.50194 9.01952L 10.5097 1.04313L 9.45873 -4.67483e-10L 1.45881 7.96855L 1.48234 3.10977C 1.48234 2.70193 1.14901 2.37253 0.741169 2.37253C 0.33333 2.37253 0 2.70193 0 3.10977L 0 9.75677C 0 9.97637 0.0901952 10.1528 0.235292 10.2744C 0.368624 10.4117 0.556857 10.4979 0.764698 10.4979L 7.41953 10.4979C 7.83129 10.4979 8.1607 10.1685 8.1607 9.76069C 8.15678 9.34893 7.82737 9.01952 7.41561 9.01952Z" transform="translate(13.49 0)"/>
		<path id="path0_fill" d="M 0.713715 7.10581C 0.713715 7.10581 3.76859 12.2979 7.71757 16.2351C 11.9175 20.4233 16.8234 23.1684 16.8234 23.1684C 18.443 23.9998 20.039 24.3919 21.2665 23.1684L 23.49 20.9527C 24.1017 20.341 24.2351 19.2508 23.49 18.7371L 19.0469 15.4155C 18.2939 14.9057 17.439 14.8038 16.8234 15.4155L 15.5096 16.7253C 13.9685 15.5802 12.2548 14.1803 10.7136 12.6469C 9.35284 11.2901 8.14109 9.81559 7.13326 8.46266L 8.49403 7.10581C 9.10579 6.49405 9.00383 5.63916 8.49403 4.89015L 5.16073 0.458819C 4.54505 -0.15294 3.5529 -0.15294 2.93722 0.458819L 0.713715 2.67448C -0.509802 3.898 0.0784275 5.35681 0.713715 7.10581Z" fill="currentColor"/>
		<path id="path1_fill" d="M 7.41561 9.01952L 2.50194 9.01952L 10.5097 1.04313L 9.45873 -4.67483e-10L 1.45881 7.96855L 1.48234 3.10977C 1.48234 2.70193 1.14901 2.37253 0.741169 2.37253C 0.33333 2.37253 0 2.70193 0 3.10977L 0 9.75677C 0 9.97637 0.0901952 10.1528 0.235292 10.2744C 0.368624 10.4117 0.556857 10.4979 0.764698 10.4979L 7.41953 10.4979C 7.83129 10.4979 8.1607 10.1685 8.1607 9.76069C 8.15678 9.34893 7.82737 9.01952 7.41561 9.01952Z" transform="translate(13.49 0)" fill="currentColor"/>		
	</symbol>
	<symbol id="reviews" viewBox="0 0 24 24" shape-rendering="geometricPrecision">
		<path id="path0_fill" d="M 12 0C 5.37224 0 0 4.70098 0 10.5C 0 13.8143 1.75875 16.7647 4.5 18.6893L 4.5 24L 9.75675 20.8102C 10.4843 20.9303 11.2327 21 12 21C 18.6278 21 24 16.299 24 10.5C 24 4.70098 18.6278 0 12 0ZM 12 19.5C 11.124 19.5 10.278 19.398 9.46498 19.2247L 5.93396 21.3472L 5.98122 17.8687C 3.27451 16.2405 1.5 13.5495 1.5 10.5C 1.5 5.52976 6.20098 1.5 12 1.5C 17.799 1.5 22.5 5.52976 22.5 10.5C 22.5 15.4702 17.799 19.5 12 19.5Z"/>
		<path id="path1_fill" d="M 12 6L 13.1226 9.45492L 16.7553 9.45492L 13.8164 11.5902L 14.9389 15.0451L 12 12.9098L 9.06107 15.0451L 10.1836 11.5902L 7.24472 9.45492L 10.8774 9.45492L 12 6Z"/>
		<path id="path2_fill" fill-rule="evenodd" d="M 0 10.5C 0 4.70099 5.37225 0 12 0C 18.6277 0 24 4.70099 24 10.5C 24 16.299 18.6277 21 12 21C 11.2327 21 10.4843 20.9303 9.75677 20.8102L 4.5 24L 4.5 18.6893C 1.75873 16.7647 0 13.8143 0 10.5ZM 13.1226 9.45493L 12 6L 10.8774 9.45493L 7.24469 9.45493L 10.1837 11.5902L 9.0611 15.0451L 12 12.9098L 14.9389 15.0451L 13.8163 11.5902L 16.7553 9.45493L 13.1226 9.45493Z" fill="currentColor"/>
	</symbol>
	<symbol id="star" viewBox="0 0 10 10" shape-rendering="geometricPrecision">
		<path id="path0_fill" d="M 5 0L 6.12257 3.43614L 9.75528 3.43614L 6.81636 5.55979L 7.93893 8.99593L 5 6.87228L 2.06107 8.99593L 3.18364 5.55979L 0.244717 3.43614L 3.87743 3.43614L 5 0Z"/>
	</symbol>
	<symbol id="extra" viewBox="0 0 23 6" shape-rendering="geometricPrecision">
		<path id="path0_fill" d="M 5 2.48641C 5 3.85962 3.88071 4.97283 2.5 4.97283C 1.11929 4.97283 0 3.85962 0 2.48641C 0 1.11321 1.11929 0 2.5 0C 3.88071 0 5 1.11321 5 2.48641Z"/>
		<path id="path1_fill" d="M 5 2.48641C 5 3.85962 3.88071 4.97283 2.5 4.97283C 1.11929 4.97283 0 3.85962 0 2.48641C 0 1.11321 1.11929 0 2.5 0C 3.88071 0 5 1.11321 5 2.48641Z" transform="translate(9 0)"/>
		<path id="path2_fill" d="M 5 2.48641C 5 3.85962 3.88071 4.97283 2.5 4.97283C 1.11929 4.97283 0 3.85962 0 2.48641C 0 1.11321 1.11929 0 2.5 0C 3.88071 0 5 1.11321 5 2.48641Z" transform="translate(18 0)"/>
	</symbol>
	<symbol id="close" viewBox="0 0 24 24" shape-rendering="geometricPrecision">
		<path id="path0_fill" d="M 16.2878 7.71224C 15.9923 7.41675 15.5138 7.41675 15.219 7.71224L 11.9962 10.935L 8.81847 7.75725C 8.52522 7.464 8.05047 7.464 7.758 7.75725C 7.46475 8.05051 7.46475 8.52526 7.758 8.81773L 10.9358 11.9955L 7.73627 15.195C 7.44078 15.4905 7.44078 15.9689 7.73627 16.2637C 8.03176 16.5585 8.51027 16.5585 8.80502 16.2637L 12.0045 13.0642L 15.1823 16.242C 15.4755 16.5352 15.9503 16.5352 16.2428 16.242C 16.536 15.9487 16.536 15.474 16.2428 15.1815L 13.065 12.0037L 16.2878 8.78098C 16.5833 8.48623 16.5833 8.00702 16.2878 7.71224ZM 12 0C 5.37224 0 0 5.37224 0 12C 0 18.6278 5.37224 24 12 24C 18.627 24 24 18.627 24 12C 24 5.37302 18.6278 0 12 0ZM 12 22.5C 6.20098 22.5 1.5 17.799 1.5 12C 1.5 6.20098 6.20098 1.5 12 1.5C 17.799 1.5 22.5 6.20098 22.5 12C 22.5 17.799 17.799 22.5 12 22.5Z" />
	</symbol>
	<symbol id="close2" viewBox="0 0 16 16" shape-rendering="geometricPrecision">
		<path id="path2_fill" d="M 16 8C 16 12.4183 12.4183 16 8 16C 3.58172 16 0 12.4183 0 8C 0 3.58172 3.58172 0 8 0C 12.4183 0 16 3.58172 16 8Z"/>
		<path id="path3_fill" d="M 5.13624 0.147745C 5.33274 -0.0492484 5.65175 -0.0492484 5.84874 0.147745C 6.04573 0.344268 6.04573 0.663745 5.84876 0.860241L 3.70024 3.00874L 5.81875 5.12722C 6.01425 5.32223 6.01425 5.63873 5.81875 5.83423C 5.62374 6.02973 5.30725 6.02973 5.11175 5.83423L 2.99326 3.71575L 0.860242 5.84874C 0.663745 6.04526 0.344739 6.04526 0.147745 5.84874C -0.0492484 5.65222 -0.0492484 5.33323 0.147745 5.13624L 2.28074 3.00325L 0.162229 0.884739C -0.0332744 0.689758 -0.0332744 0.373261 0.162229 0.177758C 0.357209 -0.0177454 0.673706 -0.0177454 0.86921 0.177758L 2.98772 2.29624L 5.13624 0.147745Z" fill="currentColor" transform="translate(5.01 4.99)"/>
	</symbol>		
	<symbol id="phone" viewBox="0 0 16 16" shape-rendering="geometricPrecision">
		<path id="path0_fill" d="M 0.47581 4.73748C 0.47581 4.73748 2.51239 8.19908 5.14504 10.824C 7.94502 13.6163 11.2156 15.4465 11.2156 15.4465C 12.2953 16.0008 13.3593 16.2622 14.1776 15.4465L 15.66 13.9693C 16.0678 13.5614 16.1567 12.8346 15.66 12.4921L 12.6979 10.2776C 12.196 9.93773 11.626 9.86975 11.2156 10.2776L 10.3398 11.1509C 9.31232 10.3874 8.16985 9.45405 7.14241 8.43178C 6.23523 7.52716 5.42739 6.5441 4.75551 5.6421L 5.66269 4.73748C 6.07053 4.32962 6.00255 3.75966 5.66269 3.26029L 3.44049 0.305897C 3.03003 -0.101966 2.3686 -0.101966 1.95815 0.305897L 0.47581 1.78309C -0.339868 2.59882 0.052285 3.57141 0.47581 4.73748ZM 1.28626 2.45502L 2.22743 1.51641C 2.48886 1.25758 2.90977 1.16868 3.17121 1.51641L 4.58557 3.39624C 4.80256 3.71521 4.84701 4.07601 4.58557 4.33485L 3.39604 5.52183C 5.82216 9.45666 10.1855 12.3169 10.4574 12.5104L 11.6182 11.3522C 11.877 11.0933 12.2404 11.1378 12.5593 11.3522L 14.4443 12.7614C 14.7266 12.9993 14.6378 13.3758 14.4443 13.7L 13.5031 14.6386C 13.2417 14.8974 12.2953 14.8844 11.9554 14.7066C 11.9554 14.7066 7.53456 11.9352 5.66007 9.90635C 4.03394 8.21739 2.09148 5.6604 1.21567 3.99758C 1.02221 3.61063 0.915021 2.80013 1.28626 2.45502Z"/>
	</symbol>	
	<symbol id="lock" viewBox="0 0 10 16" shape-rendering="geometricPrecision">
		<path id="path0_fill" d="M 5 10C 4.724 10 4.5 10.224 4.5 10.5L 4.5 12.5C 4.5 12.776 4.724 13 5 13C 5.276 13 5.5 12.776 5.5 12.5L 5.5 10.5C 5.5 10.224 5.276 10 5 10ZM 9 8.00899L 9 4C 9 1.79099 7.20901 0 5 0C 2.79099 0 1 1.79099 1 4L 1 8.00899C 0.37499 8.844 0 9.87699 0 11C 0 13.7615 2.23851 16 5 16C 7.7615 16 10 13.7615 10 11C 10 9.87699 9.62501 8.844 9 8.00899ZM 2 4C 2 2.34301 3.34301 1 5 1C 6.65699 1 8 2.34301 8 4L 8 7.00701C 7.1635 6.37749 6.12699 6 5 6C 3.87299 6 2.83651 6.37749 2 7.00701L 2 4ZM 5 15C 2.79099 15 1 13.209 1 11C 1 8.79099 2.79099 7 5 7C 7.134 7 9 8.866 9 11C 9 13.209 7.20901 15 5 15Z"/>
	</symbol>
	<symbol id="chevron-left" viewBox="0 0 13 21" shape-rendering="geometricPrecision">
		<path id="path2_fill" fill-rule="evenodd" d="M 0 10.5L 10.5 0L 12.5 2L 4 10.5L 12.5 19L 10.5 21L 0 10.5Z"/>
	</symbol>	
	<symbol id="chevron-right" viewBox="0 0 13 21" shape-rendering="geometricPrecision">
		<path id="path1_fill" fill-rule="evenodd" d="M 0 10.5L 10.5 0L 12.5 2L 4 10.5L 12.5 19L 10.5 21L 0 10.5Z" transform="rotate(180,6.5,10.5)"/>
	</symbol>		
	<symbol id="plus" viewBox="0 0 18 18" shape-rendering="geometricPrecision">
		<path id="path2_fill" fill-rule="evenodd" d="M 9.5 0L 8 0L 8 8L 0 8L 0 9.5L 8 9.5L 8 17.5L 9.5 17.5L 9.5 9.5L 17.5 9.5L 17.5 8L 9.5 8L 9.5 0Z"/>
	</symbol>	
	<symbol id="send" viewBox="0 0 24 24" shape-rendering="geometricPrecision">
		<path id="path1_fill" d="M 23.1934 0.0584204C 22.3285 0.478889 8.40846e-11 11.281 8.40846e-11 11.281C 8.40846e-11 11.281 7.52062 15.8142 7.48175 15.7701C 7.4698 15.7566 11.9708 24 11.9708 24C 11.9708 24 23.7545 1.18068 23.9416 0.806564C 24.1055 0.338955 23.7545 -0.175757 23.1934 0.0584204ZM 2.99273 11.281L 20.2007 3.05111L 8.22993 14.2737C 8.22696 14.27 2.99273 11.281 2.99273 11.281ZM 11.9708 21.0073C 11.9708 21.0073 9.63053 16.5003 8.97812 15.0219L 21.005 3.63393L 11.9708 21.0073Z"/>
	</symbol>
	<symbol id="photo" viewBox="0 0 24 21" shape-rendering="geometricPrecision">
		<path id="path0_fill" d="M 21 3L 18.75 3L 18 1.5C 17.5582 0.62698 17.3287 0 16.5 0L 7.5 0C 6.67126 0 6.39749 0.71549 6 1.5L 5.25 3L 3 3C 1.34325 3 0 4.34326 0 6L 0 18C 0 19.6567 1.34325 21 3 21L 21 21C 22.6567 21 24 19.6567 24 18L 24 6C 24 4.34326 22.6567 3 21 3ZM 22.5 18C 22.5 18.8287 21.8287 19.5 21 19.5L 3 19.5C 2.17125 19.5 1.5 18.8287 1.5 18L 1.5 6C 1.5 5.172 2.17125 4.5 3 4.5L 6 4.5L 6.75 3C 7.28024 2.12776 7.42126 1.5 8.25 1.5L 15.75 1.5C 16.5787 1.5 16.7198 2.12698 17.25 3L 18 4.5L 21 4.5C 21.8287 4.5 22.5 5.17126 22.5 6L 22.5 18ZM 12 6C 8.68651 6 6 8.68651 6 12C 6 15.3135 8.68651 18 12 18C 15.3135 18 18 15.3135 18 12C 18 8.68651 15.3135 6 12 6ZM 12 16.5C 9.51451 16.5 7.5 14.4855 7.5 12C 7.5 9.51451 9.51451 7.5 12 7.5C 14.4855 7.5 16.5 9.51451 16.5 12C 16.5 14.4855 14.4855 16.5 12 16.5Z"/>
	</symbol>
	<symbol id="clock" viewBox="0 0 12 12" shape-rendering="geometricPrecision">
		<path id="path0_fill" d="M 6 0C 2.68627 0 0 2.68627 0 6C 0 9.31373 2.68627 12 6 12C 9.31373 12 12 9.31373 12 6C 12 2.68627 9.31373 0 6 0ZM 6 11.251C 3.1 11.251 0.74902 8.9 0.74902 6C 0.74902 3.1 3.1 0.74902 6 0.74902C 8.9 0.74902 11.251 3.1 11.251 6C 11.251 8.9 8.9 11.251 6 11.251Z"/>
		<path id="path1_fill" d="M 3.74902 4.13333L 0.74902 4.13333L 0.74902 0.37451C 0.74902 0.166667 0.580392 0 0.37451 0C 0.168627 0 -2.39354e-07 0.168627 -2.39354e-07 0.37451L -2.39354e-07 4.50784C -2.39354e-07 4.71569 0.168627 4.88235 0.37451 4.88235L 3.74902 4.88235C 3.95686 4.88235 4.12353 4.71373 4.12353 4.50784C 4.12353 4.30196 3.95686 4.13333 3.74902 4.13333Z" transform="translate(5.61 1.5)"/>		
	</symbol>	
	<symbol id="check" viewBox="0 0 24 24" shape-rendering="geometricPrecision">
		<circle cx="12" cy="12" r="11" stroke="#101010" opacity="0.75" fill="transparent"></circle>
		<path id="path1_fill" fill-rule="evenodd" d="M 24 12C 24 18.6274 18.6274 24 12 24C 5.37256 24 0 18.6274 0 12C 0 5.37256 5.37256 0 12 0C 18.6274 0 24 5.37256 24 12ZM 6.29285 12.2928C 6.68347 11.9023 7.31653 11.9023 7.70715 12.2928L 9.95129 14.5371L 16.2474 7.34155C 16.6111 6.9259 17.2429 6.88379 17.6584 7.24744C 18.0741 7.61108 18.1162 8.24292 17.7526 8.65857L 10.7526 16.6586C 10.3717 17.0939 9.7019 17.1162 9.29285 16.7072L 6.29285 13.7072C 5.90234 13.3167 5.90234 12.6835 6.29285 12.2928Z" fill="currentColor"/>	
	</symbol>	
	<symbol id="menu-close" viewBox="0 0 19 19" shape-rendering="geometricPrecision">
		<path id="path0_fill" d="M 7.7782 9.19241L 0 16.9706L 1.41418 18.3848L 9.19238 10.6066L 16.9705 18.3848L 18.3848 16.9706L 10.6066 9.1924L 18.3848 1.41422L 16.9706 0L 9.19238 7.7782L 1.41418 1.52588e-05L 0 1.41423L 7.7782 9.19241Z"/>
	</symbol>
	<symbol id="calendar" viewBox="0 0 23 24" shape-rendering="geometricPrecision">
		<path id="path5_fill" d="M 4.5 15L 6 15C 6.82875 15 7.5 14.328 7.5 13.4999L 7.5 12C 7.5 11.1712 6.82875 10.5 6 10.5L 4.5 10.5C 3.67125 10.5 3 11.1712 3 12L 3 13.4999C 3 14.328 3.67125 15 4.5 15ZM 4.5 12L 6 12L 6 13.4999L 4.5 13.4999L 4.5 12ZM 16.5 20.9999L 18 20.9999C 18.8288 20.9999 19.5 20.3287 19.5 19.5L 19.5 18C 19.5 17.1713 18.8288 16.5 18 16.5L 16.5 16.5C 15.672 16.5 15 17.1713 15 18L 15 19.5C 15 20.3287 15.6713 20.9999 16.5 20.9999ZM 16.5 18L 18 18L 18 19.5L 16.5 19.5L 16.5 18ZM 16.5 15L 18 15C 18.8288 15 19.5 14.328 19.5 13.4999L 19.5 12C 19.5 11.1712 18.8288 10.5 18 10.5L 16.5 10.5C 15.672 10.5 15 11.1712 15 12L 15 13.4999C 15 14.328 15.6713 15 16.5 15ZM 16.5 12L 18 12L 18 13.4999L 16.5 13.4999L 16.5 12ZM 19.5 1.5L 16.5 1.5L 16.5 0.749999C 16.5 0.335992 16.164 0 15.75 0C 15.3361 0 15 0.335992 15 0.749999L 15 1.5L 7.50004 1.5L 7.50004 0.749999C 7.5 0.335992 7.16401 0 6.75 0C 6.33599 0 6 0.335992 6 0.749999L 6 1.5L 3 1.5C 1.34327 1.5 -1.40246e-08 2.84327 -1.40246e-08 4.49999L -1.40246e-08 20.9999C -1.40246e-08 22.6567 1.34327 24 3 24L 19.5 24C 21.1567 24 22.5 22.6567 22.5 20.9999L 22.5 4.49999C 22.5 2.84323 21.1568 1.5 19.5 1.5ZM 21 20.9999C 21 21.8287 20.3288 22.5 19.5 22.5L 3 22.5C 2.17125 22.5 1.5 21.8279 1.5 20.9999L 1.5 7.49999L 21 7.49999L 21 20.9999L 21 20.9999ZM 21 5.99999L 1.5 5.99999L 1.5 4.49999C 1.5 3.67124 2.17125 3 3 3L 6 3L 6 3.74999C 6 4.164 6.33599 4.49999 6.75 4.49999C 7.16401 4.49999 7.5 4.164 7.5 3.74999L 7.5 3L 15 3L 15 3.74999C 15 4.164 15.336 4.49999 15.75 4.49999C 16.164 4.49999 16.5 4.164 16.5 3.74999L 16.5 3L 19.5 3C 20.3288 3 21 3.67124 21 4.49999L 21 5.99999ZM 10.5 20.9999L 12 20.9999C 12.8287 20.9999 13.5 20.3287 13.5 19.5L 13.5 18C 13.5 17.1713 12.8287 16.5 12 16.5L 10.5 16.5C 9.67202 16.5 9 17.1713 9 18L 9 19.5C 9 20.3287 9.67125 20.9999 10.5 20.9999ZM 10.5 18L 12 18L 12 19.5L 10.5 19.5L 10.5 18ZM 10.5 15L 12 15C 12.8287 15 13.5 14.328 13.5 13.4999L 13.5 12C 13.5 11.1712 12.8287 10.5 12 10.5L 10.5 10.5C 9.67202 10.5 9 11.1712 9 12L 9 13.4999C 9 14.328 9.67125 15 10.5 15ZM 10.5 12L 12 12L 12 13.4999L 10.5 13.4999L 10.5 12ZM 4.5 20.9999L 6 20.9999C 6.82875 20.9999 7.5 20.3287 7.5 19.5L 7.5 18C 7.5 17.1713 6.82875 16.5 6 16.5L 4.5 16.5C 3.67125 16.5 3 17.1713 3 18L 3 19.5C 3 20.3287 3.67125 20.9999 4.5 20.9999ZM 4.5 18L 6 18L 6 19.5L 4.5 19.5L 4.5 18Z"/>
	</symbol>																	
	<symbol id="profile-edit" viewBox="0 0 24 24" shape-rendering="geometricPrecision">
		<path id="path1_fill" d="M 6.08251 13.551L 2.85749 20.0805C 2.58675 20.8155 3.17475 21.474 3.90976 21.1327L 10.4347 17.9055C 10.716 17.8507 10.989 17.742 11.2065 17.5238L 22.797 5.92502C 23.379 5.34302 23.379 4.39878 22.797 3.81604L 20.163 1.17976C 19.581 0.597765 18.6375 0.597765 18.0555 1.17976L 6.46424 12.7785C 6.24675 12.9967 6.13726 13.2698 6.08251 13.551ZM 18.582 2.76149C 18.873 2.47047 19.3447 2.47047 19.6358 2.76149L 21.216 4.34322C 21.507 4.6342 21.507 5.10671 21.216 5.39773L 19.6358 6.97945L 17.0393 4.30573L 18.582 2.76149ZM 15.9293 5.41651L 18.582 8.03404L 10.152 16.4693C 9.16424 15.4807 7.79776 14.1135 7.518 13.833L 15.9293 5.41651ZM 8.83949 17.2642L 4.81051 19.7047C 4.44298 19.875 4.11373 19.5225 4.28475 19.1782L 6.72373 15.1462L 8.83949 17.2642ZM 22.5 9L 22.5 21C 22.5 21.8235 21.6855 22.509 20.8627 22.509L 2.98051 22.509C 2.15776 22.509 1.49027 21.8415 1.49027 21.018L 1.49027 3.12376C 1.49027 2.30024 2.17729 1.5 3.00004 1.5L 15 1.5L 15 0L 3.00004 0C 1.35376 0 0 1.47675 0 3.12376L 0 21.018C 0 22.665 1.33424 24 2.98051 24L 20.8627 24C 22.509 24 24 22.647 24 21L 24 9L 22.5 9Z"/>
	</symbol>
	<symbol id="review-add" viewBox="0 0 24 24" shape-rendering="geometricPrecision">
		<path id="path3_fill" d="M 12 0C 5.37224 0 0 4.70098 0 10.5C 0 13.8143 1.75875 16.7647 4.5 18.6893L 4.5 24L 9.75675 20.8102C 10.4843 20.9303 11.2327 21 12 21C 18.6278 21 24 16.299 24 10.5C 24 4.70098 18.6278 0 12 0ZM 12 19.5C 11.124 19.5 10.278 19.398 9.46498 19.2247L 5.93396 21.3472L 5.98122 17.8687C 3.27451 16.2405 1.5 13.5495 1.5 10.5C 1.5 5.52976 6.20098 1.5 12 1.5C 17.799 1.5 22.5 5.52976 22.5 10.5C 22.5 15.4702 17.799 19.5 12 19.5Z"/>
		<path id="path4_fill" fill-rule="evenodd" d="M 5 0L 3 0L 3 3L 0 3L 0 5L 3 5L 3 8L 5 8L 5 5L 8 5L 8 3L 5 3L 5 0Z" transform="translate(8 7)"/>
	</symbol>
	<symbol id="add" viewBox="0 0 24 24" shape-rendering="geometricPrecision">
		<path id="path0_fill" d="M 24 12C 24 18.6274 18.6274 24 12 24C 5.37258 24 0 18.6274 0 12C 0 5.37258 5.37258 0 12 0C 18.6274 0 24 5.37258 24 12Z" fill="currentColor"/>
		<path id="path1_fill" d="M 6 4.5L 9.75 4.5C 10.164 4.5 10.5 4.836 10.5 5.25C 10.5 5.664 10.164 6 9.75 6L 6 6L 6 9.75C 6 10.164 5.664 10.5 5.25 10.5C 4.836 10.5 4.5 10.164 4.5 9.75L 4.5 6L 0.75 6C 0.336 6 0 5.664 0 5.25C 0 4.836 0.336 4.5 0.75 4.5L 4.5 4.5L 4.5 0.75C 4.5 0.336 4.836 0 5.25 0C 5.664 0 6 0.336 6 0.75L 6 4.5Z" transform="translate(6.75 6.75)"/>
	</symbol>
	<symbol id="chevron-top" viewBox="0 0 22 14" shape-rendering="geometricPrecision">
		<g transform="translate(-4713 -129)">
			<path id="path4_fill" fill-rule="evenodd" d="M 0 10.5L 10.5 0L 12.5 2L 4 10.5L 12.5 19L 10.5 21L 0 10.5Z" transform="matrix(6.12323e-17 1 -1 6.12323e-17 4734.5 129.75)"/>
		</g>
	</symbol>			
	<symbol id="chevron-bottom" viewBox="0 0 22 14" shape-rendering="geometricPrecision">
		<g transform="translate(-4717 -477)">
			<path id="path2_fill" fill-rule="evenodd" d="M 0 10.5L 10.5 0L 12.5 2L 4 10.5L 12.5 19L 10.5 21L 0 10.5Z" transform="matrix(-1.83697e-16 -1 1 -1.83697e-16 4717.5 490.25)"/>
		</g>
	</symbol>			
	<symbol id="facebook" viewBox="0 0 24 24" shape-rendering="geometricPrecision">
		<path id="path0_fill" d="M 24 12C 24 18.6274 18.6274 24 12 24C 5.37258 24 0 18.6274 0 12C 0 5.37258 5.37258 0 12 0C 18.6274 0 24 5.37258 24 12Z" fill="currentColor"/>
		<path id="path1_fill" d="M 0 4.91141L 1.6 4.91141L 1.6 3.41141C 1.51334 2.61083 1.68879 1.80375 2.1 1.11141C 2.3697 0.735029 2.73297 0.43557 3.1539 0.242645C 3.57483 0.0497207 4.03882 -0.0299858 4.5 0.0114083C 5.44329 -0.0361319 6.38819 0.0651071 7.3 0.311408L 6.9 2.61141C 6.47848 2.48281 6.04068 2.41546 5.6 2.41141C 5 2.41141 4.5 2.61141 4.5 3.21141L 4.5 4.91141L 7 4.91141L 6.8 7.21141L 4.5 7.21141L 4.5 15.0114L 1.6 15.0114L 1.6 7.21141L 0 7.21141L 0 4.91141Z" transform="translate(8 4)"/>
	</symbol>			
	<symbol id="vk" viewBox="0 0 24 24" shape-rendering="geometricPrecision">
		<path id="path0_fill" d="M 24 12C 24 18.6274 18.6274 24 12 24C 5.37258 24 0 18.6274 0 12C 0 5.37258 5.37258 0 12 0C 18.6274 0 24 5.37258 24 12Z" fill="currentColor"/>
		<path id="path1_fill" d="M 15.8784 9.5037L 12.9984 9.5037C 12.9441 9.51023 12.889 9.50465 12.8372 9.48736C 12.7853 9.47007 12.7379 9.44149 12.6984 9.4037C 12.4856 9.29053 12.3115 9.11643 12.1984 8.9037L 10.8984 7.6037L 10.4984 7.2037C 10.4589 7.1659 10.4115 7.13732 10.3596 7.12003C 10.3077 7.10274 10.2527 7.09716 10.1984 7.1037C 10.0884 7.1037 9.99837 7.2037 9.89837 7.3037L 9.78837 7.6037L 9.78837 8.2037C 9.79214 8.44084 9.75839 8.67709 9.68837 8.9037L 9.58837 9.2037C 9.48837 9.4037 9.38837 9.4037 9.18837 9.4037L 6.86837 9.4037L 6.46837 9.3037C 5.7515 8.96256 5.10656 8.48734 4.56837 7.9037C 3.8888 7.23924 3.2851 6.50139 2.76837 5.7037C 1.97674 4.70006 1.27408 3.62934 0.668374 2.5037C 0.478374 2.1037 0.268374 1.7037 0.0683736 1.2037C -0.0227912 0.979267 -0.0227912 0.728124 0.0683736 0.503696C 0.0683736 0.403696 0.0683736 0.403696 0.168374 0.303696C 0.268374 0.203696 0.268374 0.203696 0.368374 0.203696L 2.86837 0.203696C 2.94573 0.205177 3.02177 0.223899 3.09097 0.258498C 3.16017 0.293098 3.22078 0.342702 3.26837 0.403696C 3.45839 0.619432 3.62593 0.853978 3.76837 1.1037L 4.16837 1.9037C 4.4607 2.4935 4.79489 3.06162 5.16837 3.6037L 5.76837 4.4037C 5.86837 4.5037 5.96837 4.6037 6.06837 4.6037C 6.1199 4.59919 6.1682 4.57667 6.20477 4.5401C 6.24135 4.50352 6.26387 4.45523 6.26837 4.4037L 6.26837 1.4037C 6.26837 1.2037 6.16837 1.2037 5.96837 1.1037L 5.76837 1.1037C 5.72782 1.10852 5.68669 1.10408 5.6481 1.09071C 5.6095 1.07734 5.57445 1.05539 5.54556 1.0265C 5.51668 0.997623 5.49473 0.962566 5.48136 0.923972C 5.46799 0.885378 5.46355 0.844254 5.46837 0.803696C 5.45003 0.659412 5.47914 0.513079 5.5513 0.386798C 5.62346 0.260517 5.73476 0.161147 5.86837 0.103696L 6.26837 0.00369581L 8.76837 0.00369581C 8.9094 -0.0121604 9.05141 0.0233424 9.16837 0.103696C 9.30706 0.132891 9.43184 0.207993 9.52257 0.316867C 9.6133 0.42574 9.66467 0.562023 9.66837 0.703696L 9.66837 4.4037C 9.66837 4.6037 9.86837 4.6037 10.0684 4.5037C 10.5353 4.19176 10.8866 3.73497 11.0684 3.2037C 11.2684 2.7037 11.4684 2.3037 11.6684 1.8037L 12.1684 0.703696C 12.1684 0.603696 12.2684 0.503696 12.3684 0.403696C 12.4684 0.303696 12.4684 0.303696 12.5684 0.303696L 15.5684 0.303696C 15.6834 0.310951 15.7958 0.341247 15.8988 0.392782C 16.0019 0.444318 16.0936 0.516042 16.1684 0.603696C 16.2684 0.703696 16.2684 0.703696 16.2684 0.803696C 16.3784 1.2037 16.1684 1.5037 15.9684 1.9037L 15.3684 2.8037C 14.8811 3.37981 14.4239 3.9806 13.9984 4.6037L 13.6984 5.1037C 13.6755 5.12146 13.657 5.14421 13.6443 5.1702C 13.6316 5.1962 13.625 5.22476 13.625 5.2537C 13.625 5.28264 13.6316 5.31119 13.6443 5.33719C 13.657 5.36319 13.6755 5.38593 13.6984 5.4037C 13.9226 5.61512 14.1237 5.84977 14.2984 6.1037L 15.6984 7.6037L 16.0984 8.1037L 16.1984 8.3037C 16.315 8.37643 16.4055 8.48424 16.457 8.61166C 16.5085 8.73907 16.5183 8.87952 16.4849 9.01284C 16.4516 9.14615 16.3769 9.26548 16.2715 9.35367C 16.1661 9.44186 16.0355 9.49439 15.8984 9.5037L 15.8784 9.5037Z" transform="translate(3 8)"/>
	</symbol>			
	<symbol id="instagram" viewBox="0 0 24 24" shape-rendering="geometricPrecision">
		<path id="path0_fill" d="M 24 12C 24 18.6274 18.6274 24 12 24C 5.37258 24 0 18.6274 0 12C 0 5.37258 5.37258 0 12 0C 18.6274 0 24 5.37258 24 12Z" fill="currentColor"/>
		<path id="path1_fill" d="M 11.5 0.00157219L 1.70003 0.00157219C 1.47641 0.000245042 1.25475 0.0433108 1.0479 0.128274C 0.841048 0.213237 0.653114 0.338407 0.49499 0.496532C 0.336865 0.654657 0.211694 0.842591 0.126731 1.04944C 0.0417684 1.2563 -0.00129738 1.47795 2.9765e-05 1.70157L 2.9765e-05 11.5016C -0.00129738 11.7252 0.0417684 11.9468 0.126731 12.1537C 0.211694 12.3606 0.336865 12.5485 0.49499 12.7066C 0.653114 12.8647 0.841048 12.9899 1.0479 13.0749C 1.25475 13.1598 1.47641 13.2029 1.70003 13.2016L 11.5 13.2016C 11.7236 13.2029 11.9453 13.1598 12.1522 13.0749C 12.359 12.9899 12.5469 12.8647 12.7051 12.7066C 12.8632 12.5485 12.9884 12.3606 13.0733 12.1537C 13.1583 11.9468 13.2014 11.7252 13.2 11.5016L 13.2 1.70157C 13.21 1.47568 13.1728 1.25019 13.0909 1.03945C 13.0089 0.828699 12.8841 0.6373 12.7242 0.477416C 12.5643 0.317532 12.3729 0.192662 12.1622 0.110742C 11.9514 0.0288214 11.7259 -0.00835612 11.5 0.00157219ZM 9.00003 2.00157C 9.01158 1.84627 9.0785 1.70028 9.18862 1.59016C 9.29874 1.48005 9.44473 1.41312 9.60003 1.40157L 11.1 1.40157C 11.2553 1.41312 11.4013 1.48005 11.5114 1.59016C 11.6216 1.70028 11.6885 1.84627 11.7 2.00157L 11.7 3.40157C 11.6885 3.55687 11.6216 3.70286 11.5114 3.81298C 11.4013 3.9231 11.2553 3.99002 11.1 4.00157L 9.60003 4.00157C 9.44473 3.99002 9.29874 3.9231 9.18862 3.81298C 9.0785 3.70286 9.01158 3.55687 9.00003 3.40157L 9.00003 2.00157ZM 6.60003 3.90157C 6.94447 3.89045 7.28754 3.9501 7.60801 4.07683C 7.92849 4.20355 8.21957 4.39467 8.46325 4.63835C 8.70694 4.88204 8.89805 5.17311 9.02478 5.49359C 9.1515 5.81407 9.21115 6.15713 9.20003 6.50157C 9.18721 7.18713 8.90917 7.84102 8.42433 8.32587C 7.93948 8.81071 7.28558 9.08876 6.60003 9.10157C 6.25559 9.11269 5.91252 9.05305 5.59205 8.92632C 5.27157 8.79959 4.98049 8.60848 4.73681 8.36479C 4.49312 8.12111 4.30201 7.83003 4.17528 7.50955C 4.04856 7.18908 3.98891 6.84601 4.00003 6.50157C 4.01285 5.81602 4.29089 5.16212 4.77573 4.67728C 5.26058 4.19243 5.91448 3.91439 6.60003 3.90157ZM 11.7 11.1016C 11.7044 11.1684 11.6945 11.2354 11.671 11.298C 11.6474 11.3607 11.6107 11.4176 11.5634 11.4649C 11.5161 11.5123 11.4591 11.549 11.3965 11.5725C 11.3338 11.5961 11.2668 11.606 11.2 11.6016L 2.10003 11.6016C 2.03323 11.606 1.96625 11.5961 1.90358 11.5725C 1.84091 11.549 1.78401 11.5123 1.73666 11.4649C 1.68932 11.4176 1.65264 11.3607 1.62908 11.298C 1.60551 11.2354 1.59561 11.1684 1.60003 11.1016L 1.60003 5.60157L 2.80003 5.60157C 2.68521 5.95783 2.61797 6.3277 2.60003 6.70157C 2.59986 7.23538 2.70654 7.76382 2.91379 8.25576C 3.12103 8.7477 3.42464 9.19318 3.80673 9.56595C 4.18883 9.93872 4.64166 10.2312 5.13857 10.4263C 5.63547 10.6213 6.16639 10.7149 6.70003 10.7016C 7.23367 10.7149 7.76459 10.6213 8.26149 10.4263C 8.75839 10.2312 9.21124 9.93872 9.59333 9.56595C 9.97542 9.19318 10.279 8.7477 10.4863 8.25576C 10.6935 7.76382 10.8002 7.23538 10.8 6.70157C 10.7912 6.32671 10.7237 5.95554 10.6 5.60157L 11.8 5.60157L 11.7 11.1016Z" transform="translate(5 6)" />
	</symbol>
	<symbol id="disconnected" viewBox="0 0 64 56" shape-rendering="geometricPrecision">
		<path id="path0_fill" d="M 62.5935 5.62602C 60.6553 2.15504 56.9793 -1.94808e-07 53.0008 -1.94808e-07C 51.1286 -1.94808e-07 49.2741 0.48691 47.6418 1.40763L 26.9977 13.0385L 29.3726 17.2867L 50.0178 5.6559C 50.9308 5.1425 51.9625 4.871 53.0042 4.871C 55.2272 4.871 57.2798 6.07327 58.3621 8.00977C 59.1617 9.44062 59.3575 11.0999 58.9131 12.683C 58.4709 14.2661 57.4413 15.5822 56.0157 16.3848L 37.3021 26.9248C 36.9457 24.6362 35.882 22.5254 34.2177 20.8539C 31.283 17.9116 26.6312 16.8706 22.7243 18.2782L 21.0348 18.8887L 22.676 23.4704L 24.3721 22.8632C 26.5544 22.0661 29.1515 22.66 30.7871 24.2984C 31.7308 25.2467 32.3281 26.4478 32.5173 27.7495C 32.4381 27.7308 32.3588 27.7108 32.2831 27.6888C 30.7024 27.2428 29.3934 26.2084 28.5927 24.772L 27.7106 23.2076L 23.4746 25.5967L 24.3623 27.161C 25.7967 29.73 28.1418 31.5848 30.9708 32.3819C 31.0687 32.4073 31.1677 32.4349 31.2668 32.4581C 31.1173 32.648 30.9577 32.829 30.7883 32.9991L 15.3184 48.5269C 14.1613 49.6872 12.6214 50.3253 10.9834 50.3253C 9.34443 50.3253 7.80449 49.6872 6.64952 48.5269C 5.49456 47.3666 4.85882 45.8232 4.85882 44.1771C 4.85882 42.532 5.49456 40.9876 6.64952 39.8284L 20.0856 26.3441L 16.6527 22.8985L 3.21779 36.3828C 1.14292 38.467 0 41.2348 0 44.1769C 0 47.1213 1.14292 49.888 3.21738 51.9724C 5.29307 54.0557 8.04955 55.2005 10.9832 55.2005C 13.9168 55.2005 16.6733 54.0557 18.749 51.9724L 34.2222 36.4456C 35.3551 35.304 36.2263 33.924 36.7719 32.4104C 37.6684 32.1708 38.5208 31.8264 39.3128 31.3782L 58.3917 20.6329C 60.9459 19.1921 62.7915 16.8373 63.5846 14.0011C 64.3787 11.1638 64.0267 8.18837 62.5935 5.62602Z" transform="translate(0 0.799)"/>
		<path id="path1_fill" d="M 3.64267 15.1372C 4.25202 15.0257 4.65906 14.4384 4.54796 13.8256L 2.23357 0.930672C 2.12247 0.316907 1.53505 -0.0916356 0.925698 0.0176985C 0.315266 0.129206 -0.092862 0.716486 0.0182362 1.33147L 2.33371 14.2241C 2.44373 14.8392 3.03007 15.2465 3.64267 15.1372Z" transform="translate(19.789 0)"/>
		<path id="path2_fill" d="M 1.32395 4.56796L 14.1705 2.24288C 14.782 2.13137 15.189 1.54409 15.0779 0.931279C 14.9668 0.316292 14.3817 -0.0932014 13.7722 0.0183057L 0.924617 2.34447C 0.315268 2.45272 -0.0928598 3.04326 0.0182384 3.65607C 0.127172 4.26997 0.714599 4.67838 1.32395 4.56796Z" transform="translate(4.569 17.3609)"/>	
	</symbol>			
</svg>	