<svg width="17" height="24" viewBox="0 0 17 24" version="1.1" xmlns="http://www.w3.org/2000/svg" xmlns:xlink="http://www.w3.org/1999/xlink">
<title>User_Icon</title>
<desc>Created using Figma</desc>
<g id="Canvas" transform="translate(-571 300)">
<rect x="571" y="-300" width="17" height="24" fill="#E5E5E5"/>
<clipPath id="clip-0" clip-rule="evenodd">
<path d="M 227 -334L 602 -334L 602 940L 227 940L 227 -334Z" fill="#FFFFFF"/>
</clipPath>
<g id="Index" clip-path="url(#clip-0)">
<path d="M 227 -334L 602 -334L 602 940L 227 940L 227 -334Z" fill="#FFFFFF"/>
<g id="bg3">
<use xlink:href="#path0_fill" transform="translate(227 -334)" fill="#FAEAD8"/>
</g>
<g id="Top block">
<path d="M 227 -310L 602 -310L 602 -266L 227 -266L 227 -310Z" fill="#FFFFFF"/>
<g id="bg" filter="url(#filter0_d)">
<use xlink:href="#path1_fill" transform="translate(227 -310)" fill="#FFFFFF"/>
</g>
<g id="User_Icon">
<use xlink:href="#path2_fill" transform="translate(571 -300)"/>
</g>
</g>
</g>
</g>
<defs>
<filter id="filter0_d" filterUnits="userSpaceOnUse" x="227" y="-310" width="375" height="45" color-interpolation-filters="sRGB">
<feFlood flood-opacity="0" result="BackgroundImageFix"/>
<feColorMatrix in="SourceAlpha" type="matrix" values="0 0 0 0 0 0 0 0 0 0 0 0 0 0 0 0 0 0 255 0"/>
<feOffset dx="0" dy="0.5"/>
<feColorMatrix type="matrix" values="0 0 0 0 0 0 0 0 0 0 0 0 0 0 0 0 0 0 0.25 0"/>
<feBlend mode="normal" in2="BackgroundImageFix" result="effect1_dropShadow"/>
<feBlend mode="normal" in="SourceGraphic" in2="effect1_dropShadow" result="shape"/>
</filter>
<path id="path0_fill" d="M 0 0L 375 0L 375 1504L 0 1504L 0 0Z"/>
<path id="path1_fill" d="M 0 0L 375 0L 375 44L 0 44L 0 0Z"/>
<path id="path2_fill" d="M 13.4632 12.264C 14.4232 10.9688 15 9.309 15 7.5C 15 3.35776 11.9782 0 8.25 0C 4.52176 0 1.5 3.35776 1.5 7.5C 1.5 9.309 2.07676 10.9688 3.03676 12.264C 1.27424 12.8738 0 14.5297 0 16.5L 0 19.5C 0 21.9855 2.01451 24 4.5 24L 12 24C 14.4855 24 16.5 21.9855 16.5 19.5L 16.5 16.5C 16.5 14.5297 15.2258 12.8738 13.4632 12.264ZM 3 7.5C 3 4.18648 5.35048 1.5 8.25 1.5C 11.1495 1.5 13.5 4.18648 13.5 7.5C 13.5 10.8135 11.1495 13.5 8.25 13.5C 5.35048 13.5 3 10.8135 3 7.5ZM 15 19.125C 15 20.9888 13.3515 22.5 11.3182 22.5L 5.18176 22.5C 3.14851 22.5 1.5 20.9888 1.5 19.125L 1.5 16.875C 1.5 15.2805 2.70976 13.9522 4.332 13.599C 5.43751 14.478 6.78748 15 8.25 15C 9.71251 15 11.0625 14.478 12.168 13.599C 13.7902 13.9522 15 15.2805 15 16.875L 15 19.125Z"/>
</defs>
</svg>
