<svg width="24" height="24" viewBox="0 0 24 24" version="1.1" xmlns="http://www.w3.org/2000/svg" xmlns:xlink="http://www.w3.org/1999/xlink">
	<path id="path0_fill" d="M 24 12C 24 18.6274 18.6274 24 12 24C 5.37258 24 0 18.6274 0 12C 0 5.37258 5.37258 0 12 0C 18.6274 0 24 5.37258 24 12Z" fill="currentColor"/>
	<path id="path1_fill" d="M 15.8784 9.5037L 12.9984 9.5037C 12.9441 9.51023 12.889 9.50465 12.8372 9.48736C 12.7853 9.47007 12.7379 9.44149 12.6984 9.4037C 12.4856 9.29053 12.3115 9.11643 12.1984 8.9037L 10.8984 7.6037L 10.4984 7.2037C 10.4589 7.1659 10.4115 7.13732 10.3596 7.12003C 10.3077 7.10274 10.2527 7.09716 10.1984 7.1037C 10.0884 7.1037 9.99837 7.2037 9.89837 7.3037L 9.78837 7.6037L 9.78837 8.2037C 9.79214 8.44084 9.75839 8.67709 9.68837 8.9037L 9.58837 9.2037C 9.48837 9.4037 9.38837 9.4037 9.18837 9.4037L 6.86837 9.4037L 6.46837 9.3037C 5.7515 8.96256 5.10656 8.48734 4.56837 7.9037C 3.8888 7.23924 3.2851 6.50139 2.76837 5.7037C 1.97674 4.70006 1.27408 3.62934 0.668374 2.5037C 0.478374 2.1037 0.268374 1.7037 0.0683736 1.2037C -0.0227912 0.979267 -0.0227912 0.728124 0.0683736 0.503696C 0.0683736 0.403696 0.0683736 0.403696 0.168374 0.303696C 0.268374 0.203696 0.268374 0.203696 0.368374 0.203696L 2.86837 0.203696C 2.94573 0.205177 3.02177 0.223899 3.09097 0.258498C 3.16017 0.293098 3.22078 0.342702 3.26837 0.403696C 3.45839 0.619432 3.62593 0.853978 3.76837 1.1037L 4.16837 1.9037C 4.4607 2.4935 4.79489 3.06162 5.16837 3.6037L 5.76837 4.4037C 5.86837 4.5037 5.96837 4.6037 6.06837 4.6037C 6.1199 4.59919 6.1682 4.57667 6.20477 4.5401C 6.24135 4.50352 6.26387 4.45523 6.26837 4.4037L 6.26837 1.4037C 6.26837 1.2037 6.16837 1.2037 5.96837 1.1037L 5.76837 1.1037C 5.72782 1.10852 5.68669 1.10408 5.6481 1.09071C 5.6095 1.07734 5.57445 1.05539 5.54556 1.0265C 5.51668 0.997623 5.49473 0.962566 5.48136 0.923972C 5.46799 0.885378 5.46355 0.844254 5.46837 0.803696C 5.45003 0.659412 5.47914 0.513079 5.5513 0.386798C 5.62346 0.260517 5.73476 0.161147 5.86837 0.103696L 6.26837 0.00369581L 8.76837 0.00369581C 8.9094 -0.0121604 9.05141 0.0233424 9.16837 0.103696C 9.30706 0.132891 9.43184 0.207993 9.52257 0.316867C 9.6133 0.42574 9.66467 0.562023 9.66837 0.703696L 9.66837 4.4037C 9.66837 4.6037 9.86837 4.6037 10.0684 4.5037C 10.5353 4.19176 10.8866 3.73497 11.0684 3.2037C 11.2684 2.7037 11.4684 2.3037 11.6684 1.8037L 12.1684 0.703696C 12.1684 0.603696 12.2684 0.503696 12.3684 0.403696C 12.4684 0.303696 12.4684 0.303696 12.5684 0.303696L 15.5684 0.303696C 15.6834 0.310951 15.7958 0.341247 15.8988 0.392782C 16.0019 0.444318 16.0936 0.516042 16.1684 0.603696C 16.2684 0.703696 16.2684 0.703696 16.2684 0.803696C 16.3784 1.2037 16.1684 1.5037 15.9684 1.9037L 15.3684 2.8037C 14.8811 3.37981 14.4239 3.9806 13.9984 4.6037L 13.6984 5.1037C 13.6755 5.12146 13.657 5.14421 13.6443 5.1702C 13.6316 5.1962 13.625 5.22476 13.625 5.2537C 13.625 5.28264 13.6316 5.31119 13.6443 5.33719C 13.657 5.36319 13.6755 5.38593 13.6984 5.4037C 13.9226 5.61512 14.1237 5.84977 14.2984 6.1037L 15.6984 7.6037L 16.0984 8.1037L 16.1984 8.3037C 16.315 8.37643 16.4055 8.48424 16.457 8.61166C 16.5085 8.73907 16.5183 8.87952 16.4849 9.01284C 16.4516 9.14615 16.3769 9.26548 16.2715 9.35367C 16.1661 9.44186 16.0355 9.49439 15.8984 9.5037L 15.8784 9.5037Z" transform="translate(3 8)" fill="#FFFFFF"/>
</svg>
